<svg width="55" height="55" viewBox="0 0 55 55" fill="none" xmlns="http://www.w3.org/2000/svg">
<rect opacity="0.6" width="55" height="55" rx="24" fill="#C5F2DC"/>
<path fill-rule="evenodd" clip-rule="evenodd" d="M36.7351 13.4898L27.7332 9.55021C27.5801 9.48343 27.4062 9.48343 27.2531 9.55021L18.2512 13.4898C18.0326 13.5852 17.8912 13.8009 17.8911 14.0394V23.4594C17.8944 25.5764 18.9119 27.5637 20.6277 28.8042L26.8492 33.2904C27.2335 33.5684 27.7528 33.5684 28.1371 33.2904L34.3586 28.8048C36.0744 27.5643 37.0919 25.577 37.0952 23.46V14.0394C37.0951 13.8009 36.9537 13.5852 36.7351 13.4898ZM35.8949 23.46C35.8922 25.1915 35.0599 26.817 33.6565 27.8316L27.4932 32.2758L21.3298 27.8316C19.9264 26.817 19.0941 25.1915 19.0914 23.46V14.4318L27.4932 10.755L35.8949 14.4318V23.46ZM27.2535 12.1705L20.6521 15.06C20.4335 15.1554 20.2921 15.3712 20.292 15.6096V23.4606C20.2938 24.8068 20.941 26.0706 22.0324 26.859L27.1424 30.5442C27.3521 30.6954 27.635 30.6954 27.8446 30.5442L32.9547 26.859C34.046 26.0706 34.6932 24.8068 34.6951 23.4606V15.6096C34.6949 15.3712 34.5536 15.1554 34.335 15.06L27.7336 12.1705C27.5805 12.1037 27.4065 12.1037 27.2535 12.1705ZM33.4948 16.0014V23.4606C33.493 24.4213 33.0311 25.3229 32.2525 25.8858L27.4935 29.3178L22.7345 25.8858C21.9559 25.3229 21.4941 24.4213 21.4922 23.4606V16.0014L27.4935 13.3753L33.4948 16.0014ZM13.1635 26.3874L14.4616 29.4198C15.4734 28.7496 16.8044 28.8188 17.7413 29.5902C18.7506 30.5179 19.9131 31.2637 21.177 31.7946C21.9718 32.0754 22.6671 32.5824 23.1772 33.2532C24.0474 34.3769 24.5111 35.7622 24.4927 37.1832V38.2998C25.1556 38.2998 25.693 38.8371 25.693 39.4998V44.2998C25.693 44.9625 25.1556 45.4998 24.4927 45.4998H17.8913C17.2284 45.4998 16.6911 44.9625 16.6911 44.2998V39.4998C16.6917 39.1963 16.808 38.9045 17.0163 38.6838L13.3178 34.9854C12.7736 34.4423 12.3322 33.8053 12.0149 33.105L9.66297 27.9324C9.38693 27.3072 9.46545 26.5823 9.86896 26.0307C10.2725 25.4791 10.9397 25.1846 11.6192 25.2582C12.2988 25.3318 12.8875 25.7622 13.1635 26.3874ZM17.8913 44.2998H24.4927V39.4998H17.8913V44.2998ZM23.2925 37.1832C23.3107 36.0347 22.94 34.9138 22.2404 34.0026C21.8732 33.5138 21.3718 33.1423 20.7971 32.9334C19.3868 32.3596 18.0902 31.5387 16.9683 30.5094C16.4071 30.0471 15.6008 30.0336 15.0245 30.477C15.241 30.8006 15.4888 31.1021 15.7645 31.377L18.5059 34.1184C18.6619 34.2691 18.7244 34.4921 18.6695 34.7019C18.6146 34.9117 18.4507 35.0755 18.2409 35.1304C18.0311 35.1853 17.8079 35.1228 17.6573 34.9668L14.9159 32.2254C14.2727 31.5843 13.7589 30.8256 13.4024 29.9904L12.0599 26.8602C11.948 26.5977 11.69 26.4274 11.4045 26.4276C11.162 26.4277 10.9361 26.551 10.8048 26.7549C10.6735 26.9588 10.6548 27.2154 10.7552 27.4362L13.1071 32.6088C13.3653 33.1778 13.7241 33.6955 14.1663 34.137L18.33 38.2998H23.2925V37.1832ZM22.6927 41.2998H22.0927C21.7613 41.2998 21.4927 41.5684 21.4927 41.8998C21.4927 42.2312 21.7613 42.4998 22.0927 42.4998H22.6927C23.024 42.4998 23.2927 42.2312 23.2927 41.8998C23.2927 41.5684 23.024 41.2998 22.6927 41.2998ZM45.3244 27.9324L42.9725 33.1049C42.6552 33.8052 42.2138 34.4422 41.6697 34.9853L37.9711 38.6837C38.1794 38.9045 38.2957 39.1963 38.2963 39.4997V44.2997C38.2963 44.9625 37.759 45.4997 37.0961 45.4997H30.4947C29.8318 45.4997 29.2944 44.9625 29.2944 44.2997V39.4997C29.2944 38.837 29.8318 38.2997 30.4947 38.2997V37.1831C30.4759 35.7615 30.9396 34.3755 31.8102 33.2514C32.3203 32.5805 33.0156 32.0735 33.8104 31.7928C35.0744 31.2618 36.2368 30.516 37.2461 29.5884C38.1824 28.8144 39.5141 28.7414 40.5294 29.4084L41.8245 26.3874C42.0933 25.7511 42.6844 25.3091 43.3708 25.2311C44.0573 25.1531 44.7325 25.4512 45.1373 26.0109C45.5421 26.5706 45.6136 27.3051 45.3244 27.9324ZM30.4947 44.2997H37.0961V39.4997H30.4947V44.2997ZM31.6949 38.2997H36.6574L40.8187 34.1376C41.2609 33.6961 41.6197 33.1783 41.8779 32.6094L44.2298 27.4368C44.3302 27.216 44.3115 26.9594 44.1802 26.7554C44.0489 26.5515 43.823 26.4282 43.5805 26.4282C43.2952 26.428 43.0374 26.598 42.9251 26.8602L41.5826 29.991C41.2262 30.8261 40.7123 31.5849 40.0691 32.226L37.3277 34.9673C37.0923 35.1947 36.718 35.1915 36.4865 34.96C36.255 34.7286 36.2517 34.3544 36.4792 34.1189L39.2205 31.3776C39.4979 31.101 39.747 30.7975 39.9641 30.4716C39.3858 30.0278 38.5773 30.0435 38.0167 30.5094C36.8947 31.5388 35.5979 32.3597 34.1873 32.9334C33.6137 33.143 33.1134 33.5147 32.747 34.0032C32.0476 34.9142 31.6768 36.0349 31.6949 37.1831V38.2997ZM32.8948 41.2998H32.2948C31.9635 41.2998 31.6948 41.5684 31.6948 41.8998C31.6948 42.2312 31.9635 42.4998 32.2948 42.4998H32.8948C33.2262 42.4998 33.4948 42.2312 33.4948 41.8998C33.4948 41.5684 33.2262 41.2998 32.8948 41.2998ZM23.4121 22.3399C23.6109 22.0748 23.9871 22.0211 24.2522 22.2199L26.145 23.6395L30.5944 16.9669C30.7134 16.7886 30.9185 16.6872 31.1325 16.7011C31.3465 16.7149 31.5368 16.8419 31.6318 17.0341C31.7268 17.2263 31.712 17.4546 31.593 17.6329L26.792 24.8329C26.7005 24.9701 26.5566 25.0636 26.3941 25.0915C26.3606 25.097 26.3266 25.0998 26.2927 25.0999C26.1628 25.0999 26.0365 25.0578 25.9326 24.9799L23.5321 23.1799C23.2669 22.9811 23.2132 22.605 23.4121 22.3399Z" fill="#1ECE7A"/>
</svg>
