<svg width="384" height="391" viewBox="0 0 384 391" fill="none" xmlns="http://www.w3.org/2000/svg">
<path d="M371.715 140.301C374.397 150.148 374.722 160.419 372.668 170.394C370.613 180.37 366.229 189.807 359.822 198.045C350.256 210.116 336.62 219.142 328.127 231.853C309.772 259.296 319.625 296.77 302.789 325.04C288.716 348.69 259.562 360.307 232.491 370.279C211.234 378.103 189.764 385.976 167.231 389.13C144.698 392.283 120.465 390.283 100.94 379.414C84.8379 370.476 73.0082 356.307 62.082 342.157C35.2234 307.343 10.9476 269.435 2.69975 227.32C-5.54807 185.205 4.74045 137.966 38.5608 108.828C55.0245 94.6389 76.5901 84.854 88.2072 67.0088C100.398 48.2866 100.568 22.1641 119.519 9.1177C126.513 4.29919 135.207 2.06237 143.837 0.998162C164.615 -1.48137 185.703 2.27959 204.006 11.729C222.574 21.3758 237.816 36.7083 258.042 42.8768C284.221 50.8683 317.818 44.7293 335.217 68.3785C349.193 87.3963 365.508 118.15 371.715 140.301Z" fill="#F2F5F9"/>
<path fill-rule="evenodd" clip-rule="evenodd" d="M192.935 86.8899C199.411 90.5164 205.774 92.2686 208.76 91.5533C216.25 89.7597 216.938 64.3038 211.143 54.2682C205.349 44.2327 175.558 39.8586 174.057 59.7422C173.536 66.6431 176.654 72.8018 181.262 77.8271L173 113.607H197L192.935 86.8899Z" fill="#F7C2B2"/>
<path fill-rule="evenodd" clip-rule="evenodd" d="M179.418 82.303C176.406 69.8518 167.825 61.3643 169.135 55.7992C170.446 50.234 176.121 48.8776 176.121 48.8776C176.121 48.8776 179.057 37.8444 195.056 39.4919C206.099 38.4632 215.22 34.9899 222.797 37.8446C228.477 41.9718 225.443 55.3421 212.823 57.7561C208.946 57.7561 208.046 59.5939 201.576 61.8256C198.496 62.8877 197.17 68.4131 197.17 68.4131H194.246C194.246 68.4131 189.989 61.856 185.851 63.594C181.713 65.332 183.97 72.0372 183.97 72.0372L182.529 82.303H179.418Z" fill="#191847"/>
<path d="M90 269.747C90 247.656 107.909 229.747 130 229.747H197C219.091 229.747 237 247.656 237 269.747V304.958C237 327.049 219.091 344.958 197 344.958H130C107.909 344.958 90 327.049 90 304.958V269.747Z" fill="#997659"/>
<path fill-rule="evenodd" clip-rule="evenodd" d="M336.159 340.312C316.443 317.943 303.103 301.359 296.138 290.562C284.213 272.073 274.453 255.621 271.373 249.337C264.028 234.351 288.282 227.334 293.771 234.324C302.079 244.903 319.822 278.194 347 334.196L336.159 340.312Z" fill="#F6C2B2"/>
<path fill-rule="evenodd" clip-rule="evenodd" d="M315.193 326.482C304.325 330.579 292.158 325.39 287.592 314.71L259.065 247.992C251.217 232.348 289.116 222.065 294.883 229.346C302.946 239.523 317.844 268.157 329.014 289.807C335.752 302.869 328.946 321.299 315.193 326.482Z" fill="#33B074"/>
<path fill-rule="evenodd" clip-rule="evenodd" d="M198.033 316.598C205.181 306.911 231.179 274.321 245.339 260.837C249.408 256.962 253.379 253.242 257.134 249.777C268.296 239.475 290.524 256.79 279.382 266.173C251.635 289.541 211.151 321.086 207.769 323.899C203.028 327.841 193.541 322.686 198.033 316.598Z" fill="#F6C2B2"/>
<path fill-rule="evenodd" clip-rule="evenodd" d="M207.035 316.887C203.027 314.738 197.711 312.868 195.065 316.589C195.005 316.674 194.95 316.757 194.899 316.837C192.596 320.543 194.515 325.101 198.361 327.163C207.32 331.969 223.111 340.44 232.634 345.548C237.371 348.089 246.676 345.374 242.304 342.316C240.919 341.348 239.71 340.489 238.732 339.789C236.918 338.49 235.326 336.941 233.974 335.209L220.794 318.338C219.554 316.751 217.156 316.458 215.44 317.686C214.662 318.243 213.7 318.513 212.753 318.385C211.137 318.167 208.573 317.712 207.035 316.887Z" fill="#AFB9C5"/>
<path fill-rule="evenodd" clip-rule="evenodd" d="M336.537 337.604C331.887 337.604 326 338.548 326 343.198C326 347.487 329.989 350.533 334.278 350.533C344.648 350.533 363.308 350.533 374.373 350.533C379.708 350.533 386.065 343.844 380.765 343.241C379.03 343.044 377.51 342.861 376.28 342.708C374.03 342.428 371.835 341.83 369.74 340.962L349.12 332.421C347.24 331.642 345.082 332.505 344.257 334.365C343.875 335.225 343.186 335.914 342.304 336.241C340.788 336.803 338.316 337.604 336.537 337.604Z" fill="#AFB9C5"/>
<path fill-rule="evenodd" clip-rule="evenodd" d="M246.014 252.33C245.916 252.288 245.817 252.272 245.712 252.256C242.839 251.821 199.598 245.269 184.581 242.809C155.846 238.101 146.923 223.992 151.16 193.547C151.364 192.085 152.625 191.005 154.102 191.005L205.539 191.005C205.801 191.005 206.019 191.027 206.271 191.099C218.192 194.519 295.005 226.359 296.154 226.835C296.191 226.85 296.186 226.849 296.222 226.866C305.689 231.284 303.918 244.201 302.18 248.462C302.084 248.695 263.713 309.72 255.52 322.75C254.655 324.126 252.878 324.52 251.479 323.692L212.537 300.642C210.943 299.699 210.576 297.552 211.766 296.133L245.745 255.621C245.878 255.462 245.995 255.291 246.081 255.103C246.387 254.433 247.027 252.758 246.014 252.33Z" fill="#36C982"/>
<path fill-rule="evenodd" clip-rule="evenodd" d="M293.082 148.851L270.725 179.191L258.306 166.074L282.996 146.462C285.998 142.492 288.331 138.992 290.155 136.255C293.079 131.869 294.695 129.444 295.665 130.186C296.98 131.192 296.403 132.696 295.872 134.084C295.448 135.191 295.052 136.224 295.665 136.871C296.557 137.813 298.866 136.578 301.795 135.011C303.404 134.15 305.199 133.19 307.05 132.434C312.272 130.304 311.545 133.031 310.664 134.548C306.335 139.378 300.475 144.146 293.082 148.851ZM131 173.132L110.508 169.355C96.6109 203.388 88.3256 222.038 85.6523 225.304C83.692 227.7 71.6026 233.87 63.4198 237.165C60.1354 238.488 60.8406 241.067 61.8039 241.892C67.8802 247.096 73.5292 245.272 79.6783 243.286C81.4585 242.711 83.2806 242.123 85.1672 241.688C90.0502 240.561 91.5361 242.894 92.9404 245.099C94.1837 247.051 95.363 248.903 98.7793 248.164C98.6239 247.541 98.433 246.843 98.227 246.09C96.8952 241.221 94.9312 234.04 97.845 229.868C99.3404 227.727 110.392 208.815 131 173.132Z" fill="#F6C2B2"/>
<path d="M288.759 146.075C288.21 147.23 288.167 148.537 288.638 149.719C289.109 150.901 290.058 151.865 291.283 152.408C294.493 153.869 297.989 154.713 301.562 154.889C303.991 155.413 307.331 153.657 309.04 150.355C310.748 147.054 319.292 130.913 322.805 122.267C323.071 121.644 323.197 120.977 323.176 120.307C323.155 119.638 322.988 118.98 322.684 118.373C322.38 117.766 321.945 117.224 321.408 116.778C320.87 116.333 320.24 115.994 319.556 115.782L309.184 113.695C307.956 113.338 306.628 113.415 305.455 113.912C304.283 114.408 303.348 115.289 302.831 116.384L288.759 146.075Z" fill="#3D3D54"/>
<path d="M319.773 120.57L304.464 150.64C304.263 150.994 303.94 151.274 303.546 151.434C303.151 151.594 302.711 151.624 302.296 151.521L292.831 148.382C292.47 148.262 292.075 148.208 291.759 148.003C291.601 147.901 291.471 147.766 291.377 147.61C291.283 147.453 291.229 147.279 291.219 147.1C291.208 146.921 291.242 146.742 291.317 146.577L305.667 117.422C305.867 117.068 306.191 116.788 306.585 116.628C306.979 116.468 307.42 116.438 307.835 116.541L318.836 118.923C319.026 118.954 319.206 119.026 319.363 119.131C319.519 119.237 319.647 119.375 319.737 119.533C319.827 119.692 319.877 119.868 319.884 120.048C319.89 120.227 319.852 120.406 319.773 120.57Z" fill="#C3DBEE"/>
<path fill-rule="evenodd" clip-rule="evenodd" d="M186.606 103.68C186.609 100.462 189.017 97.7508 192.208 97.2423V97.2423C194.191 96.9262 196.217 97.4937 197.591 98.9334C214.811 116.984 222.374 154.72 234.414 159.898C245.125 164.505 253.545 159.427 269.786 153.49C273.254 152.222 277.093 152.797 280.074 154.91V154.91C285.644 158.858 286.509 166.846 281.278 171.361C259.025 190.57 230.359 198.682 216.66 190.99C193.138 177.784 186.581 132.73 186.606 103.68Z" fill="#446EC1"/>
<path fill-rule="evenodd" clip-rule="evenodd" d="M149 199.086C149 199.086 201.008 199.086 225.511 199.086C229.008 199.086 228.349 194.396 227.843 192.029C222.011 164.713 199.241 135.267 199.241 96.3824L177.172 93.167C158.917 120.444 152.605 154.028 149 199.086Z" fill="#F2F6F9"/>
<path fill-rule="evenodd" clip-rule="evenodd" d="M176.722 93.167C176.084 93.167 175.453 93.3352 174.901 93.6548C128.791 120.342 99.8291 160.682 88.0162 214.674C86.7751 220.346 90.6067 225.809 96.3198 226.849C99.8804 227.497 103.539 226.3 105.879 223.539C115.079 212.69 125.953 196.909 138.504 176.195C138.919 175.51 140.021 175.991 139.803 176.762V176.762C133.526 198.927 151.594 218.598 174.631 218.598C190.544 218.598 204.668 208.687 204.271 192.779C203.436 159.313 190.228 112.369 185.87 97.717C185.056 94.982 182.546 93.167 179.693 93.167C179.547 93.167 179.402 93.1718 179.258 93.1813C178.42 93.2365 177.562 93.167 176.722 93.167V93.167Z" fill="#5079CA"/>
</svg>
