<svg width="674" height="567" viewBox="0 0 674 567" fill="none" xmlns="http://www.w3.org/2000/svg">
<rect x="373.5" y="112.5" width="79" height="41" rx="20.5" fill="white" stroke="#1ECE7A"/>
<rect x="0.5" y="196" width="127" height="41" rx="20.5" fill="white" stroke="#1ECE7A"/>
<rect x="206.5" y="70.5" width="127" height="41" rx="20.5" fill="white" stroke="#1ECE7A"/>
<rect x="116.5" y="0.5" width="127" height="41" rx="20.5" fill="white" stroke="#1ECE7A"/>
<rect x="524.5" y="57.9614" width="127" height="41" rx="20.5" fill="white" stroke="#1ECE7A"/>
<rect x="594.5" y="359" width="79" height="41" rx="20.5" fill="white" stroke="#1ECE7A"/>
<rect x="192" y="525.03" width="127" height="41" rx="20.5" fill="white" stroke="#1ECE7A"/>
<rect x="138.5" y="348.117" width="79" height="41" rx="20.5" fill="white" stroke="#1ECE7A"/>
<rect x="518.5" y="212.5" width="79" height="41" rx="20.5" fill="white" stroke="#1ECE7A"/>
<rect x="390.881" y="422.5" width="119" height="41" rx="20.5" fill="white" stroke="#1ECE7A"/>
<path d="M393.406 138H395.712V134.133H397.395L399.462 138H402.008L399.691 133.76C400.932 133.227 401.619 132.146 401.619 130.654C401.619 128.487 400.187 127.091 397.71 127.091H393.406V138ZM395.712 132.279V128.977H397.268C398.599 128.977 399.244 129.568 399.244 130.654C399.244 131.736 398.599 132.279 397.278 132.279H395.712ZM413.274 132.545C413.274 128.977 411.058 126.942 408.166 126.942C405.258 126.942 403.058 128.977 403.058 132.545C403.058 136.098 405.258 138.149 408.166 138.149C411.058 138.149 413.274 136.114 413.274 132.545ZM410.936 132.545C410.936 134.857 409.839 136.109 408.166 136.109C406.488 136.109 405.396 134.857 405.396 132.545C405.396 130.234 406.488 128.982 408.166 128.982C409.839 128.982 410.936 130.234 410.936 132.545ZM425.008 132.545C425.008 128.977 422.792 126.942 419.899 126.942C416.991 126.942 414.791 128.977 414.791 132.545C414.791 136.098 416.991 138.149 419.899 138.149C422.792 138.149 425.008 136.114 425.008 132.545ZM422.669 132.545C422.669 134.857 421.572 136.109 419.899 136.109C418.221 136.109 417.129 134.857 417.129 132.545C417.129 130.234 418.221 128.982 419.899 128.982C421.572 128.982 422.669 130.234 422.669 132.545ZM426.716 138H429.023V133.494H433.46V131.592H429.023V128.993H433.939V127.091H426.716V138Z" fill="#1ECE7A"/>
<path d="M20.307 221.5H22.6135V216.994H27.2957V221.5H29.5968V210.591H27.2957V215.092H22.6135V210.591H20.307V221.5ZM41.5233 216.045C41.5233 212.477 39.3074 210.442 36.415 210.442C33.5066 210.442 31.3067 212.477 31.3067 216.045C31.3067 219.598 33.5066 221.649 36.415 221.649C39.3074 221.649 41.5233 219.614 41.5233 216.045ZM39.1849 216.045C39.1849 218.357 38.0876 219.609 36.415 219.609C34.7371 219.609 33.6451 218.357 33.6451 216.045C33.6451 213.734 34.7371 212.482 36.415 212.482C38.0876 212.482 39.1849 213.734 39.1849 216.045ZM42.333 212.493H45.6728V221.5H47.9526V212.493H51.2925V210.591H42.333V212.493ZM58.6953 221.5H60.9431L63.0152 214.368H63.1005L65.1779 221.5H67.4257L70.5472 210.591H68.0277L66.2219 218.187H66.126L64.1392 210.591H61.9818L59.9897 218.171H59.8991L58.0934 210.591H55.5738L58.6953 221.5ZM72.5487 221.5L73.3584 219.012H77.2948L78.1044 221.5H80.576L76.8154 210.591H73.8431L70.0771 221.5H72.5487ZM73.9443 217.212L75.2866 213.084H75.3718L76.7142 217.212H73.9443ZM80.1259 212.493H83.4658V221.5H85.7456V212.493H89.0854V210.591H80.1259V212.493ZM90.5609 221.5H97.9331V219.598H92.8674V216.994H97.5336V215.092H92.8674V212.493H97.9118V210.591H90.5609V221.5ZM99.7455 221.5H102.052V217.633H103.735L105.802 221.5H108.348L106.031 217.26C107.272 216.727 107.959 215.646 107.959 214.154C107.959 211.987 106.526 210.591 104.049 210.591H99.7455V221.5ZM102.052 215.779V212.477H103.607C104.939 212.477 105.584 213.068 105.584 214.154C105.584 215.236 104.939 215.779 103.618 215.779H102.052Z" fill="#1ECE7A"/>
<path d="M221.173 96C224.497 96 226.51 93.9439 226.51 90.5348C226.51 87.1364 224.497 85.0909 221.205 85.0909H217.306V96H221.173ZM219.612 94.0238V87.0671H221.082C223.128 87.0671 224.209 88.1112 224.209 90.5348C224.209 92.9691 223.128 94.0238 221.077 94.0238H219.612ZM228.219 96H235.591V94.0984H230.525V91.4936H235.191V89.592H230.525V86.9925H235.57V85.0909H228.219V96ZM237.403 96H239.71V91.4936H244.392V96H246.693V85.0909H244.392V89.592H239.71V85.0909H237.403V96ZM255.349 85.0909V92.2234C255.349 93.3899 254.406 94.0984 253.117 94.0984C251.844 94.0984 250.901 93.3899 250.901 92.2234V85.0909H248.595V92.3033C248.595 94.7749 250.47 96.1545 253.117 96.1545C255.754 96.1545 257.639 94.7749 257.639 92.3033V85.0909H255.349ZM259.537 85.0909V96H261.774V88.8729H261.865L264.688 95.9467H266.211L269.035 88.8995H269.125V96H271.362V85.0909H268.518L265.514 92.4205H265.386L262.381 85.0909H259.537ZM275.569 85.0909H273.263V96H275.569V85.0909ZM281.334 96C284.658 96 286.671 93.9439 286.671 90.5348C286.671 87.1364 284.658 85.0909 281.366 85.0909H277.467V96H281.334ZM279.773 94.0238V87.0671H281.243C283.289 87.0671 284.37 88.1112 284.37 90.5348C284.37 92.9691 283.289 94.0238 281.238 94.0238H279.773ZM290.686 85.0909H288.38V96H290.686V85.0909ZM292.584 96H294.89V91.4936H299.328V89.592H294.89V86.9925H299.807V85.0909H292.584V96ZM303.665 85.0909H301.358V96H303.665V85.0909ZM305.562 96H312.935V94.0984H307.869V91.4936H312.535V89.592H307.869V86.9925H312.913V85.0909H305.562V96ZM314.747 96H317.053V92.1328H318.737L320.803 96H323.35L321.032 91.7599C322.274 91.2273 322.961 90.146 322.961 88.6545C322.961 86.4865 321.528 85.0909 319.051 85.0909H314.747V96ZM317.053 90.2791V86.9766H318.609C319.941 86.9766 320.585 87.5678 320.585 88.6545C320.585 89.7358 319.941 90.2791 318.619 90.2791H317.053Z" fill="#1ECE7A"/>
<path d="M141.873 18.2283H144.084C144.052 16.2841 142.454 14.9418 140.025 14.9418C137.633 14.9418 135.881 16.2628 135.892 18.2443C135.886 19.853 137.021 20.7745 138.864 21.2166L140.052 21.5149C141.24 21.8026 141.9 22.1435 141.905 22.8786C141.9 23.6776 141.144 24.2209 139.972 24.2209C138.773 24.2209 137.91 23.6669 137.836 22.5749H135.604C135.663 24.9347 137.351 26.1545 139.998 26.1545C142.662 26.1545 144.228 24.8814 144.233 22.8839C144.228 21.0675 142.859 20.1033 140.963 19.6772L139.982 19.4428C139.034 19.2244 138.241 18.8729 138.257 18.0898C138.257 17.3867 138.88 16.87 140.009 16.87C141.112 16.87 141.788 17.3707 141.873 18.2283ZM145.785 26H153.157V24.0984H148.091V21.4936H152.757V19.592H148.091V16.9925H153.135V15.0909H145.785V26ZM157.425 26H159.673L161.745 18.8675H161.83L163.907 26H166.155L169.277 15.0909H166.757L164.951 22.6868H164.856L162.869 15.0909H160.711L158.719 22.6708H158.629L156.823 15.0909H154.303L157.425 26ZM170.511 26H177.883V24.0984H172.818V21.4936H177.484V19.592H172.818V16.9925H177.862V15.0909H170.511V26ZM179.696 26H182.002V22.1328H183.685L185.752 26H188.298L185.981 21.7599C187.222 21.2273 187.909 20.146 187.909 18.6545C187.909 16.4865 186.477 15.0909 184 15.0909H179.696V26ZM182.002 20.2791V16.9766H183.558C184.889 16.9766 185.534 17.5678 185.534 18.6545C185.534 19.7358 184.889 20.2791 183.568 20.2791H182.002ZM193.011 26H199.994V24.0984H195.318V15.0909H193.011V26ZM203.828 15.0909H201.522V26H203.828V15.0909ZM214.851 15.0909H212.555V21.9517H212.459L207.75 15.0909H205.726V26H208.032V19.1339H208.112L212.858 26H214.851V15.0909ZM216.756 26H224.128V24.0984H219.063V21.4936H223.729V19.592H219.063V16.9925H224.107V15.0909H216.756V26Z" fill="#1ECE7A"/>
<path d="M548.98 75.6898H551.19C551.159 73.7455 549.561 72.4032 547.132 72.4032C544.74 72.4032 542.987 73.7242 542.998 75.7057C542.993 77.3144 544.127 78.2359 545.97 78.678L547.158 78.9763C548.346 79.264 549.007 79.6049 549.012 80.34C549.007 81.139 548.25 81.6823 547.078 81.6823C545.88 81.6823 545.017 81.1283 544.942 80.0364H542.71C542.769 82.3961 544.458 83.6159 547.105 83.6159C549.768 83.6159 551.334 82.3428 551.34 80.3453C551.334 78.5289 549.965 77.5648 548.069 77.1386L547.089 76.9043C546.141 76.6859 545.347 76.3343 545.363 75.5513C545.363 74.8481 545.986 74.3315 547.116 74.3315C548.218 74.3315 548.895 74.8322 548.98 75.6898ZM559.645 72.5523V79.6848C559.645 80.8513 558.702 81.5598 557.413 81.5598C556.14 81.5598 555.197 80.8513 555.197 79.6848V72.5523H552.891V79.7647C552.891 82.2363 554.766 83.6159 557.413 83.6159C560.05 83.6159 561.936 82.2363 561.936 79.7647V72.5523H559.645ZM563.833 72.5523V83.4614H566.071V76.3343H566.161L568.984 83.4082H570.508L573.331 76.3609H573.421V83.4614H575.659V72.5523H572.814L569.81 79.8819H569.682L566.678 72.5523H563.833ZM577.559 83.4614H579.865V79.9245H581.804C584.313 79.9245 585.773 78.4277 585.773 76.2491C585.773 74.0811 584.34 72.5523 581.863 72.5523H577.559V83.4614ZM579.865 78.0761V74.438H581.421C582.753 74.438 583.397 75.1624 583.397 76.2491C583.397 77.3304 582.753 78.0761 581.432 78.0761H579.865ZM590.743 83.4614H593.049V79.9245H594.988C597.497 79.9245 598.956 78.4277 598.956 76.2491C598.956 74.0811 597.523 72.5523 595.047 72.5523H590.743V83.4614ZM593.049 78.0761V74.438H594.604C595.936 74.438 596.581 75.1624 596.581 76.2491C596.581 77.3304 595.936 78.0761 594.615 78.0761H593.049ZM607.209 72.5523V79.6848C607.209 80.8513 606.266 81.5598 604.977 81.5598C603.704 81.5598 602.761 80.8513 602.761 79.6848V72.5523H600.455V79.7647C600.455 82.2363 602.33 83.6159 604.977 83.6159C607.614 83.6159 609.499 82.2363 609.499 79.7647V72.5523H607.209ZM611.397 72.5523V83.4614H613.634V76.3343H613.725L616.548 83.4082H618.071L620.894 76.3609H620.985V83.4614H623.222V72.5523H620.378L617.373 79.8819H617.246L614.241 72.5523H611.397ZM625.122 83.4614H627.429V79.9245H629.368C631.877 79.9245 633.336 78.4277 633.336 76.2491C633.336 74.0811 631.903 72.5523 629.426 72.5523H625.122V83.4614ZM627.429 78.0761V74.438H628.984C630.316 74.438 630.961 75.1624 630.961 76.2491C630.961 77.3304 630.316 78.0761 628.995 78.0761H627.429Z" fill="#1ECE7A"/>
<path d="M614.103 384.5H616.41V380.963H618.349C620.858 380.963 622.317 379.466 622.317 377.287C622.317 375.119 620.884 373.59 618.407 373.59H614.103V384.5ZM616.41 379.114V375.476H617.965C619.297 375.476 619.941 376.201 619.941 377.287C619.941 378.368 619.297 379.114 617.976 379.114H616.41ZM633.84 379.045C633.84 375.476 631.624 373.441 628.732 373.441C625.824 373.441 623.624 375.476 623.624 379.045C623.624 382.598 625.824 384.649 628.732 384.649C631.624 384.649 633.84 382.614 633.84 379.045ZM631.502 379.045C631.502 381.357 630.404 382.609 628.732 382.609C627.054 382.609 625.962 381.357 625.962 379.045C625.962 376.733 627.054 375.481 628.732 375.481C630.404 375.481 631.502 376.733 631.502 379.045ZM645.574 379.045C645.574 375.476 643.358 373.441 640.465 373.441C637.557 373.441 635.357 375.476 635.357 379.045C635.357 382.598 637.557 384.649 640.465 384.649C643.358 384.649 645.574 382.614 645.574 379.045ZM643.235 379.045C643.235 381.357 642.138 382.609 640.465 382.609C638.787 382.609 637.695 381.357 637.695 379.045C637.695 376.733 638.787 375.481 640.465 375.481C642.138 375.481 643.235 376.733 643.235 379.045ZM647.282 384.5H654.265V382.598H649.589V373.59H647.282V384.5Z" fill="#1ECE7A"/>
<path d="M210.377 550.53L211.186 548.043H215.123L215.933 550.53H218.404L214.644 539.621H211.671L207.905 550.53H210.377ZM211.772 546.242L213.115 542.114H213.2L214.542 546.242H211.772ZM219.717 550.53H222.024V546.993H223.963C226.471 546.993 227.931 545.497 227.931 543.318C227.931 541.15 226.498 539.621 224.021 539.621H219.717V550.53ZM222.024 545.145V541.507H223.579C224.911 541.507 225.555 542.231 225.555 543.318C225.555 544.399 224.911 545.145 223.59 545.145H222.024ZM229.429 550.53H231.736V546.993H233.674C236.183 546.993 237.643 545.497 237.643 543.318C237.643 541.15 236.21 539.621 233.733 539.621H229.429V550.53ZM231.736 545.145V541.507H233.291C234.623 541.507 235.267 542.231 235.267 543.318C235.267 544.399 234.623 545.145 233.302 545.145H231.736ZM239.141 550.53H246.124V548.629H241.447V539.621H239.141V550.53ZM249.958 539.621H247.652V550.53H249.958V539.621ZM253.736 550.53L254.546 548.043H258.482L259.292 550.53H261.764L258.003 539.621H255.031L251.265 550.53H253.736ZM255.132 546.242L256.474 542.114H256.559L257.902 546.242H255.132ZM272.201 539.621H269.905V546.482H269.81L265.101 539.621H263.077V550.53H265.383V543.664H265.463L270.209 550.53H272.201V539.621ZM283.732 543.44C283.429 540.921 281.522 539.472 278.997 539.472C276.115 539.472 273.915 541.507 273.915 545.076C273.915 548.634 276.078 550.679 278.997 550.679C281.793 550.679 283.482 548.82 283.732 546.812L281.399 546.802C281.181 547.968 280.265 548.639 279.034 548.639C277.377 548.639 276.254 547.409 276.254 545.076C276.254 542.807 277.361 541.512 279.05 541.512C280.312 541.512 281.223 542.242 281.399 543.44H283.732ZM285.386 550.53H292.758V548.629H287.693V546.024H292.359V544.122H287.693V541.523H292.737V539.621H285.386V550.53ZM300.489 542.759H302.699C302.667 540.814 301.069 539.472 298.64 539.472C296.249 539.472 294.496 540.793 294.507 542.775C294.501 544.383 295.636 545.305 297.479 545.747L298.667 546.045C299.855 546.333 300.515 546.674 300.521 547.409C300.515 548.208 299.759 548.751 298.587 548.751C297.389 548.751 296.526 548.197 296.451 547.105H294.219C294.278 549.465 295.966 550.685 298.614 550.685C301.277 550.685 302.843 549.412 302.848 547.414C302.843 545.598 301.474 544.634 299.578 544.207L298.598 543.973C297.65 543.755 296.856 543.403 296.872 542.62C296.872 541.917 297.495 541.4 298.624 541.4C299.727 541.4 300.403 541.901 300.489 542.759Z" fill="#1ECE7A"/>
<path d="M159.158 365.846H161.369C161.337 363.901 159.739 362.559 157.31 362.559C154.918 362.559 153.166 363.88 153.176 365.862C153.171 367.47 154.305 368.392 156.149 368.834L157.336 369.132C158.524 369.42 159.185 369.761 159.19 370.496C159.185 371.295 158.428 371.838 157.256 371.838C156.058 371.838 155.195 371.284 155.12 370.192H152.889C152.947 372.552 154.636 373.772 157.283 373.772C159.946 373.772 161.513 372.499 161.518 370.501C161.513 368.685 160.144 367.721 158.247 367.294L157.267 367.06C156.319 366.842 155.525 366.49 155.541 365.707C155.541 365.004 156.165 364.487 157.294 364.487C158.396 364.487 159.073 364.988 159.158 365.846ZM173.094 368.163C173.094 364.594 170.878 362.559 167.986 362.559C165.077 362.559 162.877 364.594 162.877 368.163C162.877 371.716 165.077 373.766 167.986 373.766C170.878 373.766 173.094 371.732 173.094 368.163ZM170.756 368.163C170.756 370.474 169.658 371.726 167.986 371.726C166.308 371.726 165.216 370.474 165.216 368.163C165.216 365.851 166.308 364.599 167.986 364.599C169.658 364.599 170.756 365.851 170.756 368.163ZM174.803 373.617H181.786V371.716H177.109V362.708H174.803V373.617ZM185.472 373.617L186.282 371.13H190.218L191.028 373.617H193.499L189.739 362.708H186.766L183 373.617H185.472ZM186.868 369.329L188.21 365.201H188.295L189.638 369.329H186.868ZM194.812 373.617H197.119V369.75H198.802L200.869 373.617H203.415L201.098 369.377C202.339 368.844 203.026 367.763 203.026 366.272C203.026 364.104 201.593 362.708 199.116 362.708H194.812V373.617ZM197.119 367.896V364.594H198.674C200.006 364.594 200.65 365.185 200.65 366.272C200.65 367.353 200.006 367.896 198.685 367.896H197.119Z" fill="#1ECE7A"/>
<path d="M537.974 238H540.28V233.494H544.962V238H547.263V227.091H544.962V231.592H540.28V227.091H537.974V238ZM551.136 227.091H548.574L552.34 238H555.312L559.073 227.091H556.516L553.874 235.379H553.773L551.136 227.091ZM560.816 238L561.625 235.512H565.562L566.372 238H568.843L565.082 227.091H562.11L558.344 238H560.816ZM562.211 233.712L563.554 229.584H563.639L564.981 233.712H562.211ZM579.269 230.91C578.965 228.391 577.058 226.942 574.533 226.942C571.652 226.942 569.452 228.977 569.452 232.545C569.452 236.104 571.614 238.149 574.533 238.149C577.33 238.149 579.018 236.29 579.269 234.282L576.936 234.271C576.717 235.438 575.801 236.109 574.571 236.109C572.914 236.109 571.79 234.879 571.79 232.545C571.79 230.276 572.898 228.982 574.587 228.982C575.849 228.982 576.76 229.712 576.936 230.91H579.269Z" fill="#1ECE7A"/>
<path d="M407.765 440.228H409.976C409.944 438.284 408.346 436.942 405.917 436.942C403.525 436.942 401.773 438.263 401.783 440.244C401.778 441.853 402.912 442.775 404.755 443.217L405.943 443.515C407.131 443.803 407.792 444.143 407.797 444.879C407.792 445.678 407.035 446.221 405.863 446.221C404.665 446.221 403.802 445.667 403.727 444.575H401.496C401.554 446.935 403.243 448.154 405.89 448.154C408.553 448.154 410.119 446.881 410.125 444.884C410.119 443.067 408.75 442.103 406.854 441.677L405.874 441.443C404.926 441.224 404.132 440.873 404.148 440.09C404.148 439.387 404.771 438.87 405.901 438.87C407.003 438.87 407.68 439.371 407.765 440.228ZM411.676 448H419.048V446.098H413.983V443.494H418.649V441.592H413.983V438.993H419.027V437.091H411.676V448ZM420.861 448H423.167V444.463H425.106C427.615 444.463 429.075 442.966 429.075 440.788C429.075 438.62 427.642 437.091 425.165 437.091H420.861V448ZM423.167 442.615V438.977H424.723C426.054 438.977 426.699 439.701 426.699 440.788C426.699 441.869 426.054 442.615 424.733 442.615H423.167ZM430.157 438.993H433.497V448H435.777V438.993H439.117V437.091H430.157V438.993ZM442.899 437.091H440.592V448H442.899V437.091ZM454.422 440.91C454.118 438.391 452.211 436.942 449.686 436.942C446.804 436.942 444.605 438.977 444.605 442.545C444.605 446.104 446.767 448.149 449.686 448.149C452.483 448.149 454.171 446.29 454.422 444.282L452.089 444.271C451.87 445.438 450.954 446.109 449.723 446.109C448.067 446.109 446.943 444.879 446.943 442.545C446.943 440.276 448.051 438.982 449.739 438.982C451.002 438.982 451.913 439.712 452.089 440.91H454.422ZM459.132 438.993H462.472V448H464.751V438.993H468.091V437.091H459.132V438.993ZM470.099 448L470.909 445.512H474.846L475.655 448H478.127L474.366 437.091H471.394L467.628 448H470.099ZM471.495 443.712L472.837 439.584H472.923L474.265 443.712H471.495ZM488.564 437.091H486.269V443.952H486.173L481.464 437.091H479.44V448H481.746V441.134H481.826L486.572 448H488.564V437.091ZM490.47 448H492.777V444.9L493.911 443.515L496.899 448H499.659L495.562 441.975L499.611 437.091H496.846L492.92 441.901H492.777V437.091H490.47V448Z" fill="#1ECE7A"/>
</svg>
