<svg width="348" height="240" viewBox="0 0 348 240" fill="none" xmlns="http://www.w3.org/2000/svg">
<g opacity="0.4">
<path opacity="0.4" fill-rule="evenodd" clip-rule="evenodd" d="M182.093 4.186C183.249 4.186 184.186 3.24893 184.186 2.093C184.186 0.937068 183.249 0 182.093 0C180.937 0 180 0.937068 180 2.093C180 3.24893 180.937 4.186 182.093 4.186ZM182.093 22.3252C183.249 22.3252 184.186 21.3881 184.186 20.2322C184.186 19.0762 183.249 18.1392 182.093 18.1392C180.937 18.1392 180 19.0762 180 20.2322C180 21.3881 180.937 22.3252 182.093 22.3252ZM184.186 38.3718C184.186 39.5277 183.249 40.4648 182.093 40.4648C180.937 40.4648 180 39.5277 180 38.3718C180 37.2159 180.937 36.2788 182.093 36.2788C183.249 36.2788 184.186 37.2159 184.186 38.3718ZM182.093 58.6035C183.249 58.6035 184.186 57.6664 184.186 56.5105C184.186 55.3545 183.249 54.4175 182.093 54.4175C180.937 54.4175 180 55.3545 180 56.5105C180 57.6664 180.937 58.6035 182.093 58.6035ZM184.186 74.6506C184.186 75.8065 183.249 76.7436 182.093 76.7436C180.937 76.7436 180 75.8065 180 74.6506C180 73.4947 180.937 72.5576 182.093 72.5576C183.249 72.5576 184.186 73.4947 184.186 74.6506ZM182.093 94.8828C183.249 94.8828 184.186 93.9457 184.186 92.7898C184.186 91.6338 183.249 90.6968 182.093 90.6968C180.937 90.6968 180 91.6338 180 92.7898C180 93.9457 180.937 94.8828 182.093 94.8828ZM184.186 110.929C184.186 112.085 183.249 113.022 182.093 113.022C180.937 113.022 180 112.085 180 110.929C180 109.773 180.937 108.836 182.093 108.836C183.249 108.836 184.186 109.773 184.186 110.929ZM182.093 131.161C183.249 131.161 184.186 130.224 184.186 129.068C184.186 127.912 183.249 126.975 182.093 126.975C180.937 126.975 180 127.912 180 129.068C180 130.224 180.937 131.161 182.093 131.161ZM184.186 147.208C184.186 148.364 183.249 149.301 182.093 149.301C180.937 149.301 180 148.364 180 147.208C180 146.052 180.937 145.115 182.093 145.115C183.249 145.115 184.186 146.052 184.186 147.208ZM182.093 167.44C183.249 167.44 184.186 166.503 184.186 165.347C184.186 164.191 183.249 163.254 182.093 163.254C180.937 163.254 180 164.191 180 165.347C180 166.503 180.937 167.44 182.093 167.44ZM184.186 183.487C184.186 184.642 183.249 185.58 182.093 185.58C180.937 185.58 180 184.642 180 183.487C180 182.331 180.937 181.394 182.093 181.394C183.249 181.394 184.186 182.331 184.186 183.487ZM182.093 203.718C183.249 203.718 184.186 202.781 184.186 201.625C184.186 200.469 183.249 199.532 182.093 199.532C180.937 199.532 180 200.469 180 201.625C180 202.781 180.937 203.718 182.093 203.718ZM184.186 219.765C184.186 220.921 183.249 221.858 182.093 221.858C180.937 221.858 180 220.921 180 219.765C180 218.609 180.937 217.672 182.093 217.672C183.249 217.672 184.186 218.609 184.186 219.765ZM182.093 239.998C183.249 239.998 184.186 239.06 184.186 237.905C184.186 236.749 183.249 235.812 182.093 235.812C180.937 235.812 180 236.749 180 237.905C180 239.06 180.937 239.998 182.093 239.998ZM202.325 2.093C202.325 3.24893 201.388 4.186 200.232 4.186C199.076 4.186 198.139 3.24893 198.139 2.093C198.139 0.937068 199.076 0 200.232 0C201.388 0 202.325 0.937068 202.325 2.093ZM200.232 22.3252C201.388 22.3252 202.325 21.3881 202.325 20.2322C202.325 19.0762 201.388 18.1392 200.232 18.1392C199.076 18.1392 198.139 19.0762 198.139 20.2322C198.139 21.3881 199.076 22.3252 200.232 22.3252ZM202.325 38.3718C202.325 39.5277 201.388 40.4648 200.232 40.4648C199.076 40.4648 198.139 39.5277 198.139 38.3718C198.139 37.2159 199.076 36.2788 200.232 36.2788C201.388 36.2788 202.325 37.2159 202.325 38.3718ZM200.232 58.6035C201.388 58.6035 202.325 57.6664 202.325 56.5105C202.325 55.3545 201.388 54.4175 200.232 54.4175C199.076 54.4175 198.139 55.3545 198.139 56.5105C198.139 57.6664 199.076 58.6035 200.232 58.6035ZM202.325 74.6506C202.325 75.8065 201.388 76.7436 200.232 76.7436C199.076 76.7436 198.139 75.8065 198.139 74.6506C198.139 73.4947 199.076 72.5576 200.232 72.5576C201.388 72.5576 202.325 73.4947 202.325 74.6506ZM200.232 94.8828C201.388 94.8828 202.325 93.9457 202.325 92.7898C202.325 91.6338 201.388 90.6968 200.232 90.6968C199.076 90.6968 198.139 91.6338 198.139 92.7898C198.139 93.9457 199.076 94.8828 200.232 94.8828ZM202.325 110.929C202.325 112.085 201.388 113.022 200.232 113.022C199.076 113.022 198.139 112.085 198.139 110.929C198.139 109.773 199.076 108.836 200.232 108.836C201.388 108.836 202.325 109.773 202.325 110.929ZM200.232 131.161C201.388 131.161 202.325 130.224 202.325 129.068C202.325 127.912 201.388 126.975 200.232 126.975C199.076 126.975 198.139 127.912 198.139 129.068C198.139 130.224 199.076 131.161 200.232 131.161ZM202.325 147.208C202.325 148.364 201.388 149.301 200.232 149.301C199.076 149.301 198.139 148.364 198.139 147.208C198.139 146.052 199.076 145.115 200.232 145.115C201.388 145.115 202.325 146.052 202.325 147.208ZM200.232 167.44C201.388 167.44 202.325 166.503 202.325 165.347C202.325 164.191 201.388 163.254 200.232 163.254C199.076 163.254 198.139 164.191 198.139 165.347C198.139 166.503 199.076 167.44 200.232 167.44ZM202.325 183.487C202.325 184.642 201.388 185.58 200.232 185.58C199.076 185.58 198.139 184.642 198.139 183.487C198.139 182.331 199.076 181.394 200.232 181.394C201.388 181.394 202.325 182.331 202.325 183.487ZM200.232 203.718C201.388 203.718 202.325 202.781 202.325 201.625C202.325 200.469 201.388 199.532 200.232 199.532C199.076 199.532 198.139 200.469 198.139 201.625C198.139 202.781 199.076 203.718 200.232 203.718ZM202.325 219.765C202.325 220.921 201.388 221.858 200.232 221.858C199.076 221.858 198.139 220.921 198.139 219.765C198.139 218.609 199.076 217.672 200.232 217.672C201.388 217.672 202.325 218.609 202.325 219.765ZM200.232 239.998C201.388 239.998 202.325 239.06 202.325 237.905C202.325 236.749 201.388 235.812 200.232 235.812C199.076 235.812 198.139 236.749 198.139 237.905C198.139 239.06 199.076 239.998 200.232 239.998ZM220.465 2.093C220.465 3.24893 219.527 4.186 218.372 4.186C217.216 4.186 216.279 3.24893 216.279 2.093C216.279 0.937068 217.216 0 218.372 0C219.527 0 220.465 0.937068 220.465 2.093ZM218.372 22.3252C219.527 22.3252 220.465 21.3881 220.465 20.2322C220.465 19.0762 219.527 18.1392 218.372 18.1392C217.216 18.1392 216.279 19.0762 216.279 20.2322C216.279 21.3881 217.216 22.3252 218.372 22.3252ZM220.465 38.3718C220.465 39.5277 219.527 40.4648 218.372 40.4648C217.216 40.4648 216.279 39.5277 216.279 38.3718C216.279 37.2159 217.216 36.2788 218.372 36.2788C219.527 36.2788 220.465 37.2159 220.465 38.3718ZM218.372 58.6035C219.527 58.6035 220.465 57.6664 220.465 56.5105C220.465 55.3545 219.527 54.4175 218.372 54.4175C217.216 54.4175 216.279 55.3545 216.279 56.5105C216.279 57.6664 217.216 58.6035 218.372 58.6035ZM220.465 74.6506C220.465 75.8065 219.527 76.7436 218.372 76.7436C217.216 76.7436 216.279 75.8065 216.279 74.6506C216.279 73.4947 217.216 72.5576 218.372 72.5576C219.527 72.5576 220.465 73.4947 220.465 74.6506ZM218.372 94.8828C219.527 94.8828 220.465 93.9457 220.465 92.7898C220.465 91.6338 219.527 90.6968 218.372 90.6968C217.216 90.6968 216.279 91.6338 216.279 92.7898C216.279 93.9457 217.216 94.8828 218.372 94.8828ZM220.465 110.929C220.465 112.085 219.527 113.022 218.372 113.022C217.216 113.022 216.279 112.085 216.279 110.929C216.279 109.773 217.216 108.836 218.372 108.836C219.527 108.836 220.465 109.773 220.465 110.929ZM218.372 131.161C219.527 131.161 220.465 130.224 220.465 129.068C220.465 127.912 219.527 126.975 218.372 126.975C217.216 126.975 216.279 127.912 216.279 129.068C216.279 130.224 217.216 131.161 218.372 131.161ZM220.465 147.208C220.465 148.364 219.527 149.301 218.372 149.301C217.216 149.301 216.279 148.364 216.279 147.208C216.279 146.052 217.216 145.115 218.372 145.115C219.527 145.115 220.465 146.052 220.465 147.208ZM218.372 167.44C219.527 167.44 220.465 166.503 220.465 165.347C220.465 164.191 219.527 163.254 218.372 163.254C217.216 163.254 216.279 164.191 216.279 165.347C216.279 166.503 217.216 167.44 218.372 167.44ZM220.465 183.487C220.465 184.642 219.527 185.58 218.372 185.58C217.216 185.58 216.279 184.642 216.279 183.487C216.279 182.331 217.216 181.394 218.372 181.394C219.527 181.394 220.465 182.331 220.465 183.487ZM218.372 203.718C219.527 203.718 220.465 202.781 220.465 201.625C220.465 200.469 219.527 199.532 218.372 199.532C217.216 199.532 216.279 200.469 216.279 201.625C216.279 202.781 217.216 203.718 218.372 203.718ZM220.465 219.765C220.465 220.921 219.527 221.858 218.372 221.858C217.216 221.858 216.279 220.921 216.279 219.765C216.279 218.609 217.216 217.672 218.372 217.672C219.527 217.672 220.465 218.609 220.465 219.765ZM218.372 239.998C219.527 239.998 220.465 239.06 220.465 237.905C220.465 236.749 219.527 235.812 218.372 235.812C217.216 235.812 216.279 236.749 216.279 237.905C216.279 239.06 217.216 239.998 218.372 239.998ZM238.604 2.093C238.604 3.24893 237.667 4.186 236.511 4.186C235.355 4.186 234.418 3.24893 234.418 2.093C234.418 0.937068 235.355 0 236.511 0C237.667 0 238.604 0.937068 238.604 2.093ZM236.511 22.3252C237.667 22.3252 238.604 21.3881 238.604 20.2322C238.604 19.0762 237.667 18.1392 236.511 18.1392C235.355 18.1392 234.418 19.0762 234.418 20.2322C234.418 21.3881 235.355 22.3252 236.511 22.3252ZM238.604 38.3718C238.604 39.5277 237.667 40.4648 236.511 40.4648C235.355 40.4648 234.418 39.5277 234.418 38.3718C234.418 37.2159 235.355 36.2788 236.511 36.2788C237.667 36.2788 238.604 37.2159 238.604 38.3718ZM236.511 58.6035C237.667 58.6035 238.604 57.6664 238.604 56.5105C238.604 55.3545 237.667 54.4175 236.511 54.4175C235.355 54.4175 234.418 55.3545 234.418 56.5105C234.418 57.6664 235.355 58.6035 236.511 58.6035ZM238.604 74.6506C238.604 75.8065 237.667 76.7436 236.511 76.7436C235.355 76.7436 234.418 75.8065 234.418 74.6506C234.418 73.4947 235.355 72.5576 236.511 72.5576C237.667 72.5576 238.604 73.4947 238.604 74.6506ZM236.511 94.8828C237.667 94.8828 238.604 93.9457 238.604 92.7898C238.604 91.6338 237.667 90.6968 236.511 90.6968C235.355 90.6968 234.418 91.6338 234.418 92.7898C234.418 93.9457 235.355 94.8828 236.511 94.8828ZM238.604 110.929C238.604 112.085 237.667 113.022 236.511 113.022C235.355 113.022 234.418 112.085 234.418 110.929C234.418 109.773 235.355 108.836 236.511 108.836C237.667 108.836 238.604 109.773 238.604 110.929ZM236.511 131.161C237.667 131.161 238.604 130.224 238.604 129.068C238.604 127.912 237.667 126.975 236.511 126.975C235.355 126.975 234.418 127.912 234.418 129.068C234.418 130.224 235.355 131.161 236.511 131.161ZM238.604 147.208C238.604 148.364 237.667 149.301 236.511 149.301C235.355 149.301 234.418 148.364 234.418 147.208C234.418 146.052 235.355 145.115 236.511 145.115C237.667 145.115 238.604 146.052 238.604 147.208ZM236.511 167.44C237.667 167.44 238.604 166.503 238.604 165.347C238.604 164.191 237.667 163.254 236.511 163.254C235.355 163.254 234.418 164.191 234.418 165.347C234.418 166.503 235.355 167.44 236.511 167.44ZM238.604 183.487C238.604 184.642 237.667 185.58 236.511 185.58C235.355 185.58 234.418 184.642 234.418 183.487C234.418 182.331 235.355 181.394 236.511 181.394C237.667 181.394 238.604 182.331 238.604 183.487ZM236.511 203.718C237.667 203.718 238.604 202.781 238.604 201.625C238.604 200.469 237.667 199.532 236.511 199.532C235.355 199.532 234.418 200.469 234.418 201.625C234.418 202.781 235.355 203.718 236.511 203.718ZM238.604 219.765C238.604 220.921 237.667 221.858 236.511 221.858C235.355 221.858 234.418 220.921 234.418 219.765C234.418 218.609 235.355 217.672 236.511 217.672C237.667 217.672 238.604 218.609 238.604 219.765ZM236.511 239.998C237.667 239.998 238.604 239.06 238.604 237.905C238.604 236.749 237.667 235.812 236.511 235.812C235.355 235.812 234.418 236.749 234.418 237.905C234.418 239.06 235.355 239.998 236.511 239.998ZM256.743 2.093C256.743 3.24893 255.806 4.186 254.65 4.186C253.494 4.186 252.557 3.24893 252.557 2.093C252.557 0.937068 253.494 0 254.65 0C255.806 0 256.743 0.937068 256.743 2.093ZM254.65 22.3252C255.806 22.3252 256.743 21.3881 256.743 20.2322C256.743 19.0762 255.806 18.1392 254.65 18.1392C253.494 18.1392 252.557 19.0762 252.557 20.2322C252.557 21.3881 253.494 22.3252 254.65 22.3252ZM256.743 38.3718C256.743 39.5277 255.806 40.4648 254.65 40.4648C253.494 40.4648 252.557 39.5277 252.557 38.3718C252.557 37.2159 253.494 36.2788 254.65 36.2788C255.806 36.2788 256.743 37.2159 256.743 38.3718ZM254.65 58.6035C255.806 58.6035 256.743 57.6664 256.743 56.5105C256.743 55.3545 255.806 54.4175 254.65 54.4175C253.494 54.4175 252.557 55.3545 252.557 56.5105C252.557 57.6664 253.494 58.6035 254.65 58.6035ZM256.743 74.6506C256.743 75.8065 255.806 76.7436 254.65 76.7436C253.494 76.7436 252.557 75.8065 252.557 74.6506C252.557 73.4947 253.494 72.5576 254.65 72.5576C255.806 72.5576 256.743 73.4947 256.743 74.6506ZM254.65 94.8828C255.806 94.8828 256.743 93.9457 256.743 92.7898C256.743 91.6338 255.806 90.6968 254.65 90.6968C253.494 90.6968 252.557 91.6338 252.557 92.7898C252.557 93.9457 253.494 94.8828 254.65 94.8828ZM256.743 110.929C256.743 112.085 255.806 113.022 254.65 113.022C253.494 113.022 252.557 112.085 252.557 110.929C252.557 109.773 253.494 108.836 254.65 108.836C255.806 108.836 256.743 109.773 256.743 110.929ZM254.65 131.161C255.806 131.161 256.743 130.224 256.743 129.068C256.743 127.912 255.806 126.975 254.65 126.975C253.494 126.975 252.557 127.912 252.557 129.068C252.557 130.224 253.494 131.161 254.65 131.161ZM256.743 147.208C256.743 148.364 255.806 149.301 254.65 149.301C253.494 149.301 252.557 148.364 252.557 147.208C252.557 146.052 253.494 145.115 254.65 145.115C255.806 145.115 256.743 146.052 256.743 147.208ZM254.65 167.44C255.806 167.44 256.743 166.503 256.743 165.347C256.743 164.191 255.806 163.254 254.65 163.254C253.494 163.254 252.557 164.191 252.557 165.347C252.557 166.503 253.494 167.44 254.65 167.44ZM256.743 183.487C256.743 184.642 255.806 185.58 254.65 185.58C253.494 185.58 252.557 184.642 252.557 183.487C252.557 182.331 253.494 181.394 254.65 181.394C255.806 181.394 256.743 182.331 256.743 183.487ZM254.65 203.718C255.806 203.718 256.743 202.781 256.743 201.625C256.743 200.469 255.806 199.532 254.65 199.532C253.494 199.532 252.557 200.469 252.557 201.625C252.557 202.781 253.494 203.718 254.65 203.718ZM256.743 219.765C256.743 220.921 255.806 221.858 254.65 221.858C253.494 221.858 252.557 220.921 252.557 219.765C252.557 218.609 253.494 217.672 254.65 217.672C255.806 217.672 256.743 218.609 256.743 219.765ZM254.65 239.998C255.806 239.998 256.743 239.06 256.743 237.905C256.743 236.749 255.806 235.812 254.65 235.812C253.494 235.812 252.557 236.749 252.557 237.905C252.557 239.06 253.494 239.998 254.65 239.998ZM274.883 2.093C274.883 3.24893 273.946 4.186 272.79 4.186C271.634 4.186 270.697 3.24893 270.697 2.093C270.697 0.937068 271.634 0 272.79 0C273.946 0 274.883 0.937068 274.883 2.093ZM272.79 22.3252C273.946 22.3252 274.883 21.3881 274.883 20.2322C274.883 19.0762 273.946 18.1392 272.79 18.1392C271.634 18.1392 270.697 19.0762 270.697 20.2322C270.697 21.3881 271.634 22.3252 272.79 22.3252ZM274.883 38.3718C274.883 39.5277 273.946 40.4648 272.79 40.4648C271.634 40.4648 270.697 39.5277 270.697 38.3718C270.697 37.2159 271.634 36.2788 272.79 36.2788C273.946 36.2788 274.883 37.2159 274.883 38.3718ZM272.79 58.6035C273.946 58.6035 274.883 57.6664 274.883 56.5105C274.883 55.3545 273.946 54.4175 272.79 54.4175C271.634 54.4175 270.697 55.3545 270.697 56.5105C270.697 57.6664 271.634 58.6035 272.79 58.6035ZM274.883 74.6506C274.883 75.8065 273.946 76.7436 272.79 76.7436C271.634 76.7436 270.697 75.8065 270.697 74.6506C270.697 73.4947 271.634 72.5576 272.79 72.5576C273.946 72.5576 274.883 73.4947 274.883 74.6506ZM272.79 94.8828C273.946 94.8828 274.883 93.9457 274.883 92.7898C274.883 91.6338 273.946 90.6968 272.79 90.6968C271.634 90.6968 270.697 91.6338 270.697 92.7898C270.697 93.9457 271.634 94.8828 272.79 94.8828ZM274.883 110.929C274.883 112.085 273.946 113.022 272.79 113.022C271.634 113.022 270.697 112.085 270.697 110.929C270.697 109.773 271.634 108.836 272.79 108.836C273.946 108.836 274.883 109.773 274.883 110.929ZM272.79 131.161C273.946 131.161 274.883 130.224 274.883 129.068C274.883 127.912 273.946 126.975 272.79 126.975C271.634 126.975 270.697 127.912 270.697 129.068C270.697 130.224 271.634 131.161 272.79 131.161ZM274.883 147.208C274.883 148.364 273.946 149.301 272.79 149.301C271.634 149.301 270.697 148.364 270.697 147.208C270.697 146.052 271.634 145.115 272.79 145.115C273.946 145.115 274.883 146.052 274.883 147.208ZM272.79 167.44C273.946 167.44 274.883 166.503 274.883 165.347C274.883 164.191 273.946 163.254 272.79 163.254C271.634 163.254 270.697 164.191 270.697 165.347C270.697 166.503 271.634 167.44 272.79 167.44ZM274.883 183.487C274.883 184.642 273.946 185.58 272.79 185.58C271.634 185.58 270.697 184.642 270.697 183.487C270.697 182.331 271.634 181.394 272.79 181.394C273.946 181.394 274.883 182.331 274.883 183.487ZM272.79 203.718C273.946 203.718 274.883 202.781 274.883 201.625C274.883 200.469 273.946 199.532 272.79 199.532C271.634 199.532 270.697 200.469 270.697 201.625C270.697 202.781 271.634 203.718 272.79 203.718ZM274.883 219.765C274.883 220.921 273.946 221.858 272.79 221.858C271.634 221.858 270.697 220.921 270.697 219.765C270.697 218.609 271.634 217.672 272.79 217.672C273.946 217.672 274.883 218.609 274.883 219.765ZM272.79 239.998C273.946 239.998 274.883 239.06 274.883 237.905C274.883 236.749 273.946 235.812 272.79 235.812C271.634 235.812 270.697 236.749 270.697 237.905C270.697 239.06 271.634 239.998 272.79 239.998ZM293.022 2.093C293.022 3.24893 292.085 4.186 290.929 4.186C289.773 4.186 288.836 3.24893 288.836 2.093C288.836 0.937068 289.773 0 290.929 0C292.085 0 293.022 0.937068 293.022 2.093ZM290.929 22.3252C292.085 22.3252 293.022 21.3881 293.022 20.2322C293.022 19.0762 292.085 18.1392 290.929 18.1392C289.773 18.1392 288.836 19.0762 288.836 20.2322C288.836 21.3881 289.773 22.3252 290.929 22.3252ZM293.022 38.3718C293.022 39.5277 292.085 40.4648 290.929 40.4648C289.773 40.4648 288.836 39.5277 288.836 38.3718C288.836 37.2159 289.773 36.2788 290.929 36.2788C292.085 36.2788 293.022 37.2159 293.022 38.3718ZM290.929 58.6035C292.085 58.6035 293.022 57.6664 293.022 56.5105C293.022 55.3545 292.085 54.4175 290.929 54.4175C289.773 54.4175 288.836 55.3545 288.836 56.5105C288.836 57.6664 289.773 58.6035 290.929 58.6035ZM293.022 74.6506C293.022 75.8065 292.085 76.7436 290.929 76.7436C289.773 76.7436 288.836 75.8065 288.836 74.6506C288.836 73.4947 289.773 72.5576 290.929 72.5576C292.085 72.5576 293.022 73.4947 293.022 74.6506ZM290.929 94.8828C292.085 94.8828 293.022 93.9457 293.022 92.7898C293.022 91.6338 292.085 90.6968 290.929 90.6968C289.773 90.6968 288.836 91.6338 288.836 92.7898C288.836 93.9457 289.773 94.8828 290.929 94.8828ZM293.022 110.929C293.022 112.085 292.085 113.022 290.929 113.022C289.773 113.022 288.836 112.085 288.836 110.929C288.836 109.773 289.773 108.836 290.929 108.836C292.085 108.836 293.022 109.773 293.022 110.929ZM290.929 131.161C292.085 131.161 293.022 130.224 293.022 129.068C293.022 127.912 292.085 126.975 290.929 126.975C289.773 126.975 288.836 127.912 288.836 129.068C288.836 130.224 289.773 131.161 290.929 131.161ZM293.022 147.208C293.022 148.364 292.085 149.301 290.929 149.301C289.773 149.301 288.836 148.364 288.836 147.208C288.836 146.052 289.773 145.115 290.929 145.115C292.085 145.115 293.022 146.052 293.022 147.208ZM290.929 167.44C292.085 167.44 293.022 166.503 293.022 165.347C293.022 164.191 292.085 163.254 290.929 163.254C289.773 163.254 288.836 164.191 288.836 165.347C288.836 166.503 289.773 167.44 290.929 167.44ZM293.022 183.487C293.022 184.642 292.085 185.58 290.929 185.58C289.773 185.58 288.836 184.642 288.836 183.487C288.836 182.331 289.773 181.394 290.929 181.394C292.085 181.394 293.022 182.331 293.022 183.487ZM290.929 203.718C292.085 203.718 293.022 202.781 293.022 201.625C293.022 200.469 292.085 199.532 290.929 199.532C289.773 199.532 288.836 200.469 288.836 201.625C288.836 202.781 289.773 203.718 290.929 203.718ZM293.022 219.765C293.022 220.921 292.085 221.858 290.929 221.858C289.773 221.858 288.836 220.921 288.836 219.765C288.836 218.609 289.773 217.672 290.929 217.672C292.085 217.672 293.022 218.609 293.022 219.765ZM290.929 239.998C292.085 239.998 293.022 239.06 293.022 237.905C293.022 236.749 292.085 235.812 290.929 235.812C289.773 235.812 288.836 236.749 288.836 237.905C288.836 239.06 289.773 239.998 290.929 239.998ZM311.161 2.093C311.161 3.24893 310.224 4.186 309.068 4.186C307.912 4.186 306.975 3.24893 306.975 2.093C306.975 0.937068 307.912 0 309.068 0C310.224 0 311.161 0.937068 311.161 2.093ZM309.068 22.3252C310.224 22.3252 311.161 21.3881 311.161 20.2322C311.161 19.0762 310.224 18.1392 309.068 18.1392C307.912 18.1392 306.975 19.0762 306.975 20.2322C306.975 21.3881 307.912 22.3252 309.068 22.3252ZM311.161 38.3718C311.161 39.5277 310.224 40.4648 309.068 40.4648C307.912 40.4648 306.975 39.5277 306.975 38.3718C306.975 37.2159 307.912 36.2788 309.068 36.2788C310.224 36.2788 311.161 37.2159 311.161 38.3718ZM309.068 58.6035C310.224 58.6035 311.161 57.6664 311.161 56.5105C311.161 55.3545 310.224 54.4175 309.068 54.4175C307.912 54.4175 306.975 55.3545 306.975 56.5105C306.975 57.6664 307.912 58.6035 309.068 58.6035ZM311.161 74.6506C311.161 75.8065 310.224 76.7436 309.068 76.7436C307.912 76.7436 306.975 75.8065 306.975 74.6506C306.975 73.4947 307.912 72.5576 309.068 72.5576C310.224 72.5576 311.161 73.4947 311.161 74.6506ZM309.068 94.8828C310.224 94.8828 311.161 93.9457 311.161 92.7898C311.161 91.6338 310.224 90.6968 309.068 90.6968C307.912 90.6968 306.975 91.6338 306.975 92.7898C306.975 93.9457 307.912 94.8828 309.068 94.8828ZM311.161 110.929C311.161 112.085 310.224 113.022 309.068 113.022C307.912 113.022 306.975 112.085 306.975 110.929C306.975 109.773 307.912 108.836 309.068 108.836C310.224 108.836 311.161 109.773 311.161 110.929ZM309.068 131.161C310.224 131.161 311.161 130.224 311.161 129.068C311.161 127.912 310.224 126.975 309.068 126.975C307.912 126.975 306.975 127.912 306.975 129.068C306.975 130.224 307.912 131.161 309.068 131.161ZM311.161 147.208C311.161 148.364 310.224 149.301 309.068 149.301C307.912 149.301 306.975 148.364 306.975 147.208C306.975 146.052 307.912 145.115 309.068 145.115C310.224 145.115 311.161 146.052 311.161 147.208ZM309.068 167.44C310.224 167.44 311.161 166.503 311.161 165.347C311.161 164.191 310.224 163.254 309.068 163.254C307.912 163.254 306.975 164.191 306.975 165.347C306.975 166.503 307.912 167.44 309.068 167.44ZM311.161 183.487C311.161 184.642 310.224 185.58 309.068 185.58C307.912 185.58 306.975 184.642 306.975 183.487C306.975 182.331 307.912 181.394 309.068 181.394C310.224 181.394 311.161 182.331 311.161 183.487ZM309.068 203.718C310.224 203.718 311.161 202.781 311.161 201.625C311.161 200.469 310.224 199.532 309.068 199.532C307.912 199.532 306.975 200.469 306.975 201.625C306.975 202.781 307.912 203.718 309.068 203.718ZM311.161 219.765C311.161 220.921 310.224 221.858 309.068 221.858C307.912 221.858 306.975 220.921 306.975 219.765C306.975 218.609 307.912 217.672 309.068 217.672C310.224 217.672 311.161 218.609 311.161 219.765ZM309.068 239.998C310.224 239.998 311.161 239.06 311.161 237.905C311.161 236.749 310.224 235.812 309.068 235.812C307.912 235.812 306.975 236.749 306.975 237.905C306.975 239.06 307.912 239.998 309.068 239.998ZM329.301 2.093C329.301 3.24893 328.364 4.186 327.208 4.186C326.052 4.186 325.115 3.24893 325.115 2.093C325.115 0.937068 326.052 0 327.208 0C328.364 0 329.301 0.937068 329.301 2.093ZM327.208 22.3252C328.364 22.3252 329.301 21.3881 329.301 20.2322C329.301 19.0762 328.364 18.1392 327.208 18.1392C326.052 18.1392 325.115 19.0762 325.115 20.2322C325.115 21.3881 326.052 22.3252 327.208 22.3252ZM329.301 38.3718C329.301 39.5277 328.364 40.4648 327.208 40.4648C326.052 40.4648 325.115 39.5277 325.115 38.3718C325.115 37.2159 326.052 36.2788 327.208 36.2788C328.364 36.2788 329.301 37.2159 329.301 38.3718ZM327.208 58.6035C328.364 58.6035 329.301 57.6664 329.301 56.5105C329.301 55.3545 328.364 54.4175 327.208 54.4175C326.052 54.4175 325.115 55.3545 325.115 56.5105C325.115 57.6664 326.052 58.6035 327.208 58.6035ZM329.301 74.6506C329.301 75.8065 328.364 76.7436 327.208 76.7436C326.052 76.7436 325.115 75.8065 325.115 74.6506C325.115 73.4947 326.052 72.5576 327.208 72.5576C328.364 72.5576 329.301 73.4947 329.301 74.6506ZM327.208 94.8828C328.364 94.8828 329.301 93.9457 329.301 92.7898C329.301 91.6338 328.364 90.6968 327.208 90.6968C326.052 90.6968 325.115 91.6338 325.115 92.7898C325.115 93.9457 326.052 94.8828 327.208 94.8828ZM329.301 110.929C329.301 112.085 328.364 113.022 327.208 113.022C326.052 113.022 325.115 112.085 325.115 110.929C325.115 109.773 326.052 108.836 327.208 108.836C328.364 108.836 329.301 109.773 329.301 110.929ZM327.208 131.161C328.364 131.161 329.301 130.224 329.301 129.068C329.301 127.912 328.364 126.975 327.208 126.975C326.052 126.975 325.115 127.912 325.115 129.068C325.115 130.224 326.052 131.161 327.208 131.161ZM329.301 147.208C329.301 148.364 328.364 149.301 327.208 149.301C326.052 149.301 325.115 148.364 325.115 147.208C325.115 146.052 326.052 145.115 327.208 145.115C328.364 145.115 329.301 146.052 329.301 147.208ZM327.208 167.44C328.364 167.44 329.301 166.503 329.301 165.347C329.301 164.191 328.364 163.254 327.208 163.254C326.052 163.254 325.115 164.191 325.115 165.347C325.115 166.503 326.052 167.44 327.208 167.44ZM329.301 183.487C329.301 184.642 328.364 185.58 327.208 185.58C326.052 185.58 325.115 184.642 325.115 183.487C325.115 182.331 326.052 181.394 327.208 181.394C328.364 181.394 329.301 182.331 329.301 183.487ZM327.208 203.718C328.364 203.718 329.301 202.781 329.301 201.625C329.301 200.469 328.364 199.532 327.208 199.532C326.052 199.532 325.115 200.469 325.115 201.625C325.115 202.781 326.052 203.718 327.208 203.718ZM329.301 219.765C329.301 220.921 328.364 221.858 327.208 221.858C326.052 221.858 325.115 220.921 325.115 219.765C325.115 218.609 326.052 217.672 327.208 217.672C328.364 217.672 329.301 218.609 329.301 219.765ZM327.208 239.998C328.364 239.998 329.301 239.06 329.301 237.905C329.301 236.749 328.364 235.812 327.208 235.812C326.052 235.812 325.115 236.749 325.115 237.905C325.115 239.06 326.052 239.998 327.208 239.998ZM347.44 2.093C347.44 3.24893 346.503 4.186 345.347 4.186C344.191 4.186 343.254 3.24893 343.254 2.093C343.254 0.937068 344.191 0 345.347 0C346.503 0 347.44 0.937068 347.44 2.093ZM345.347 22.3252C346.503 22.3252 347.44 21.3881 347.44 20.2322C347.44 19.0762 346.503 18.1392 345.347 18.1392C344.191 18.1392 343.254 19.0762 343.254 20.2322C343.254 21.3881 344.191 22.3252 345.347 22.3252ZM347.44 38.3718C347.44 39.5277 346.503 40.4648 345.347 40.4648C344.191 40.4648 343.254 39.5277 343.254 38.3718C343.254 37.2159 344.191 36.2788 345.347 36.2788C346.503 36.2788 347.44 37.2159 347.44 38.3718ZM345.347 58.6035C346.503 58.6035 347.44 57.6664 347.44 56.5105C347.44 55.3545 346.503 54.4175 345.347 54.4175C344.191 54.4175 343.254 55.3545 343.254 56.5105C343.254 57.6664 344.191 58.6035 345.347 58.6035ZM347.44 74.6506C347.44 75.8065 346.503 76.7436 345.347 76.7436C344.191 76.7436 343.254 75.8065 343.254 74.6506C343.254 73.4947 344.191 72.5576 345.347 72.5576C346.503 72.5576 347.44 73.4947 347.44 74.6506ZM345.347 94.8828C346.503 94.8828 347.44 93.9457 347.44 92.7898C347.44 91.6338 346.503 90.6968 345.347 90.6968C344.191 90.6968 343.254 91.6338 343.254 92.7898C343.254 93.9457 344.191 94.8828 345.347 94.8828ZM347.44 110.929C347.44 112.085 346.503 113.022 345.347 113.022C344.191 113.022 343.254 112.085 343.254 110.929C343.254 109.773 344.191 108.836 345.347 108.836C346.503 108.836 347.44 109.773 347.44 110.929ZM345.347 131.161C346.503 131.161 347.44 130.224 347.44 129.068C347.44 127.912 346.503 126.975 345.347 126.975C344.191 126.975 343.254 127.912 343.254 129.068C343.254 130.224 344.191 131.161 345.347 131.161ZM347.44 147.208C347.44 148.364 346.503 149.301 345.347 149.301C344.191 149.301 343.254 148.364 343.254 147.208C343.254 146.052 344.191 145.115 345.347 145.115C346.503 145.115 347.44 146.052 347.44 147.208ZM345.347 167.44C346.503 167.44 347.44 166.503 347.44 165.347C347.44 164.191 346.503 163.254 345.347 163.254C344.191 163.254 343.254 164.191 343.254 165.347C343.254 166.503 344.191 167.44 345.347 167.44ZM347.44 183.487C347.44 184.642 346.503 185.58 345.347 185.58C344.191 185.58 343.254 184.642 343.254 183.487C343.254 182.331 344.191 181.394 345.347 181.394C346.503 181.394 347.44 182.331 347.44 183.487ZM345.347 203.718C346.503 203.718 347.44 202.781 347.44 201.625C347.44 200.469 346.503 199.532 345.347 199.532C344.191 199.532 343.254 200.469 343.254 201.625C343.254 202.781 344.191 203.718 345.347 203.718ZM347.44 219.765C347.44 220.921 346.503 221.858 345.347 221.858C344.191 221.858 343.254 220.921 343.254 219.765C343.254 218.609 344.191 217.672 345.347 217.672C346.503 217.672 347.44 218.609 347.44 219.765ZM345.347 239.998C346.503 239.998 347.44 239.06 347.44 237.905C347.44 236.749 346.503 235.812 345.347 235.812C344.191 235.812 343.254 236.749 343.254 237.905C343.254 239.06 344.191 239.998 345.347 239.998Z" fill="#262B35"/>
</g>
<g opacity="0.4">
<path opacity="0.4" fill-rule="evenodd" clip-rule="evenodd" d="M2.093 4.186C3.24893 4.186 4.186 3.24893 4.186 2.093C4.186 0.937068 3.24893 0 2.093 0C0.937068 0 0 0.937068 0 2.093C0 3.24893 0.937068 4.186 2.093 4.186ZM2.093 22.3252C3.24893 22.3252 4.186 21.3881 4.186 20.2322C4.186 19.0762 3.24893 18.1392 2.093 18.1392C0.937068 18.1392 0 19.0762 0 20.2322C0 21.3881 0.937068 22.3252 2.093 22.3252ZM4.186 38.3718C4.186 39.5277 3.24893 40.4648 2.093 40.4648C0.937068 40.4648 0 39.5277 0 38.3718C0 37.2159 0.937068 36.2788 2.093 36.2788C3.24893 36.2788 4.186 37.2159 4.186 38.3718ZM2.093 58.6035C3.24893 58.6035 4.186 57.6664 4.186 56.5105C4.186 55.3545 3.24893 54.4175 2.093 54.4175C0.937068 54.4175 0 55.3545 0 56.5105C0 57.6664 0.937068 58.6035 2.093 58.6035ZM4.186 74.6506C4.186 75.8065 3.24893 76.7436 2.093 76.7436C0.937068 76.7436 0 75.8065 0 74.6506C0 73.4947 0.937068 72.5576 2.093 72.5576C3.24893 72.5576 4.186 73.4947 4.186 74.6506ZM2.093 94.8828C3.24893 94.8828 4.186 93.9457 4.186 92.7898C4.186 91.6338 3.24893 90.6968 2.093 90.6968C0.937068 90.6968 0 91.6338 0 92.7898C0 93.9457 0.937068 94.8828 2.093 94.8828ZM4.186 110.929C4.186 112.085 3.24893 113.022 2.093 113.022C0.937068 113.022 0 112.085 0 110.929C0 109.773 0.937068 108.836 2.093 108.836C3.24893 108.836 4.186 109.773 4.186 110.929ZM2.093 131.161C3.24893 131.161 4.186 130.224 4.186 129.068C4.186 127.912 3.24893 126.975 2.093 126.975C0.937068 126.975 0 127.912 0 129.068C0 130.224 0.937068 131.161 2.093 131.161ZM4.186 147.208C4.186 148.364 3.24893 149.301 2.093 149.301C0.937068 149.301 0 148.364 0 147.208C0 146.052 0.937068 145.115 2.093 145.115C3.24893 145.115 4.186 146.052 4.186 147.208ZM2.093 167.44C3.24893 167.44 4.186 166.503 4.186 165.347C4.186 164.191 3.24893 163.254 2.093 163.254C0.937068 163.254 0 164.191 0 165.347C0 166.503 0.937068 167.44 2.093 167.44ZM4.186 183.487C4.186 184.642 3.24893 185.58 2.093 185.58C0.937068 185.58 0 184.642 0 183.487C0 182.331 0.937068 181.394 2.093 181.394C3.24893 181.394 4.186 182.331 4.186 183.487ZM2.093 203.718C3.24893 203.718 4.186 202.781 4.186 201.625C4.186 200.469 3.24893 199.532 2.093 199.532C0.937068 199.532 0 200.469 0 201.625C0 202.781 0.937068 203.718 2.093 203.718ZM4.186 219.765C4.186 220.921 3.24893 221.858 2.093 221.858C0.937068 221.858 0 220.921 0 219.765C0 218.609 0.937068 217.672 2.093 217.672C3.24893 217.672 4.186 218.609 4.186 219.765ZM2.093 239.998C3.24893 239.998 4.186 239.06 4.186 237.905C4.186 236.749 3.24893 235.812 2.093 235.812C0.937068 235.812 0 236.749 0 237.905C0 239.06 0.937068 239.998 2.093 239.998ZM22.3253 2.093C22.3253 3.24893 21.3882 4.186 20.2323 4.186C19.0764 4.186 18.1393 3.24893 18.1393 2.093C18.1393 0.937068 19.0764 0 20.2323 0C21.3882 0 22.3253 0.937068 22.3253 2.093ZM20.2323 22.3252C21.3882 22.3252 22.3253 21.3881 22.3253 20.2322C22.3253 19.0762 21.3882 18.1392 20.2323 18.1392C19.0764 18.1392 18.1393 19.0762 18.1393 20.2322C18.1393 21.3881 19.0764 22.3252 20.2323 22.3252ZM22.3253 38.3718C22.3253 39.5277 21.3882 40.4648 20.2323 40.4648C19.0764 40.4648 18.1393 39.5277 18.1393 38.3718C18.1393 37.2159 19.0764 36.2788 20.2323 36.2788C21.3882 36.2788 22.3253 37.2159 22.3253 38.3718ZM20.2323 58.6035C21.3882 58.6035 22.3253 57.6664 22.3253 56.5105C22.3253 55.3545 21.3882 54.4175 20.2323 54.4175C19.0764 54.4175 18.1393 55.3545 18.1393 56.5105C18.1393 57.6664 19.0764 58.6035 20.2323 58.6035ZM22.3253 74.6506C22.3253 75.8065 21.3882 76.7436 20.2323 76.7436C19.0764 76.7436 18.1393 75.8065 18.1393 74.6506C18.1393 73.4947 19.0764 72.5576 20.2323 72.5576C21.3882 72.5576 22.3253 73.4947 22.3253 74.6506ZM20.2323 94.8828C21.3882 94.8828 22.3253 93.9457 22.3253 92.7898C22.3253 91.6338 21.3882 90.6968 20.2323 90.6968C19.0764 90.6968 18.1393 91.6338 18.1393 92.7898C18.1393 93.9457 19.0764 94.8828 20.2323 94.8828ZM22.3253 110.929C22.3253 112.085 21.3882 113.022 20.2323 113.022C19.0764 113.022 18.1393 112.085 18.1393 110.929C18.1393 109.773 19.0764 108.836 20.2323 108.836C21.3882 108.836 22.3253 109.773 22.3253 110.929ZM20.2323 131.161C21.3882 131.161 22.3253 130.224 22.3253 129.068C22.3253 127.912 21.3882 126.975 20.2323 126.975C19.0764 126.975 18.1393 127.912 18.1393 129.068C18.1393 130.224 19.0764 131.161 20.2323 131.161ZM22.3253 147.208C22.3253 148.364 21.3882 149.301 20.2323 149.301C19.0764 149.301 18.1393 148.364 18.1393 147.208C18.1393 146.052 19.0764 145.115 20.2323 145.115C21.3882 145.115 22.3253 146.052 22.3253 147.208ZM20.2323 167.44C21.3882 167.44 22.3253 166.503 22.3253 165.347C22.3253 164.191 21.3882 163.254 20.2323 163.254C19.0764 163.254 18.1393 164.191 18.1393 165.347C18.1393 166.503 19.0764 167.44 20.2323 167.44ZM22.3253 183.487C22.3253 184.642 21.3882 185.58 20.2323 185.58C19.0764 185.58 18.1393 184.642 18.1393 183.487C18.1393 182.331 19.0764 181.394 20.2323 181.394C21.3882 181.394 22.3253 182.331 22.3253 183.487ZM20.2323 203.718C21.3882 203.718 22.3253 202.781 22.3253 201.625C22.3253 200.469 21.3882 199.532 20.2323 199.532C19.0764 199.532 18.1393 200.469 18.1393 201.625C18.1393 202.781 19.0764 203.718 20.2323 203.718ZM22.3253 219.765C22.3253 220.921 21.3882 221.858 20.2323 221.858C19.0764 221.858 18.1393 220.921 18.1393 219.765C18.1393 218.609 19.0764 217.672 20.2323 217.672C21.3882 217.672 22.3253 218.609 22.3253 219.765ZM20.2323 239.998C21.3882 239.998 22.3253 239.06 22.3253 237.905C22.3253 236.749 21.3882 235.812 20.2323 235.812C19.0764 235.812 18.1393 236.749 18.1393 237.905C18.1393 239.06 19.0764 239.998 20.2323 239.998ZM40.4646 2.093C40.4646 3.24893 39.5275 4.186 38.3716 4.186C37.2156 4.186 36.2786 3.24893 36.2786 2.093C36.2786 0.937068 37.2156 0 38.3716 0C39.5275 0 40.4646 0.937068 40.4646 2.093ZM38.3716 22.3252C39.5275 22.3252 40.4646 21.3881 40.4646 20.2322C40.4646 19.0762 39.5275 18.1392 38.3716 18.1392C37.2156 18.1392 36.2786 19.0762 36.2786 20.2322C36.2786 21.3881 37.2156 22.3252 38.3716 22.3252ZM40.4646 38.3718C40.4646 39.5277 39.5275 40.4648 38.3716 40.4648C37.2156 40.4648 36.2786 39.5277 36.2786 38.3718C36.2786 37.2159 37.2156 36.2788 38.3716 36.2788C39.5275 36.2788 40.4646 37.2159 40.4646 38.3718ZM38.3716 58.6035C39.5275 58.6035 40.4646 57.6664 40.4646 56.5105C40.4646 55.3545 39.5275 54.4175 38.3716 54.4175C37.2156 54.4175 36.2786 55.3545 36.2786 56.5105C36.2786 57.6664 37.2156 58.6035 38.3716 58.6035ZM40.4646 74.6506C40.4646 75.8065 39.5275 76.7436 38.3716 76.7436C37.2156 76.7436 36.2786 75.8065 36.2786 74.6506C36.2786 73.4947 37.2156 72.5576 38.3716 72.5576C39.5275 72.5576 40.4646 73.4947 40.4646 74.6506ZM38.3716 94.8828C39.5275 94.8828 40.4646 93.9457 40.4646 92.7898C40.4646 91.6338 39.5275 90.6968 38.3716 90.6968C37.2156 90.6968 36.2786 91.6338 36.2786 92.7898C36.2786 93.9457 37.2156 94.8828 38.3716 94.8828ZM40.4646 110.929C40.4646 112.085 39.5275 113.022 38.3716 113.022C37.2156 113.022 36.2786 112.085 36.2786 110.929C36.2786 109.773 37.2156 108.836 38.3716 108.836C39.5275 108.836 40.4646 109.773 40.4646 110.929ZM38.3716 131.161C39.5275 131.161 40.4646 130.224 40.4646 129.068C40.4646 127.912 39.5275 126.975 38.3716 126.975C37.2156 126.975 36.2786 127.912 36.2786 129.068C36.2786 130.224 37.2156 131.161 38.3716 131.161ZM40.4646 147.208C40.4646 148.364 39.5275 149.301 38.3716 149.301C37.2156 149.301 36.2786 148.364 36.2786 147.208C36.2786 146.052 37.2156 145.115 38.3716 145.115C39.5275 145.115 40.4646 146.052 40.4646 147.208ZM38.3716 167.44C39.5275 167.44 40.4646 166.503 40.4646 165.347C40.4646 164.191 39.5275 163.254 38.3716 163.254C37.2156 163.254 36.2786 164.191 36.2786 165.347C36.2786 166.503 37.2156 167.44 38.3716 167.44ZM40.4646 183.487C40.4646 184.642 39.5275 185.58 38.3716 185.58C37.2156 185.58 36.2786 184.642 36.2786 183.487C36.2786 182.331 37.2156 181.394 38.3716 181.394C39.5275 181.394 40.4646 182.331 40.4646 183.487ZM38.3716 203.718C39.5275 203.718 40.4646 202.781 40.4646 201.625C40.4646 200.469 39.5275 199.532 38.3716 199.532C37.2156 199.532 36.2786 200.469 36.2786 201.625C36.2786 202.781 37.2156 203.718 38.3716 203.718ZM40.4646 219.765C40.4646 220.921 39.5275 221.858 38.3716 221.858C37.2156 221.858 36.2786 220.921 36.2786 219.765C36.2786 218.609 37.2156 217.672 38.3716 217.672C39.5275 217.672 40.4646 218.609 40.4646 219.765ZM38.3716 239.998C39.5275 239.998 40.4646 239.06 40.4646 237.905C40.4646 236.749 39.5275 235.812 38.3716 235.812C37.2156 235.812 36.2786 236.749 36.2786 237.905C36.2786 239.06 37.2156 239.998 38.3716 239.998ZM58.6042 2.093C58.6042 3.24893 57.6671 4.186 56.5112 4.186C55.3553 4.186 54.4182 3.24893 54.4182 2.093C54.4182 0.937068 55.3553 0 56.5112 0C57.6671 0 58.6042 0.937068 58.6042 2.093ZM56.5112 22.3252C57.6671 22.3252 58.6042 21.3881 58.6042 20.2322C58.6042 19.0762 57.6671 18.1392 56.5112 18.1392C55.3553 18.1392 54.4182 19.0762 54.4182 20.2322C54.4182 21.3881 55.3553 22.3252 56.5112 22.3252ZM58.6042 38.3718C58.6042 39.5277 57.6671 40.4648 56.5112 40.4648C55.3553 40.4648 54.4182 39.5277 54.4182 38.3718C54.4182 37.2159 55.3553 36.2788 56.5112 36.2788C57.6671 36.2788 58.6042 37.2159 58.6042 38.3718ZM56.5112 58.6035C57.6671 58.6035 58.6042 57.6664 58.6042 56.5105C58.6042 55.3545 57.6671 54.4175 56.5112 54.4175C55.3553 54.4175 54.4182 55.3545 54.4182 56.5105C54.4182 57.6664 55.3553 58.6035 56.5112 58.6035ZM58.6042 74.6506C58.6042 75.8065 57.6671 76.7436 56.5112 76.7436C55.3553 76.7436 54.4182 75.8065 54.4182 74.6506C54.4182 73.4947 55.3553 72.5576 56.5112 72.5576C57.6671 72.5576 58.6042 73.4947 58.6042 74.6506ZM56.5112 94.8828C57.6671 94.8828 58.6042 93.9457 58.6042 92.7898C58.6042 91.6338 57.6671 90.6968 56.5112 90.6968C55.3553 90.6968 54.4182 91.6338 54.4182 92.7898C54.4182 93.9457 55.3553 94.8828 56.5112 94.8828ZM58.6042 110.929C58.6042 112.085 57.6671 113.022 56.5112 113.022C55.3553 113.022 54.4182 112.085 54.4182 110.929C54.4182 109.773 55.3553 108.836 56.5112 108.836C57.6671 108.836 58.6042 109.773 58.6042 110.929ZM56.5112 131.161C57.6671 131.161 58.6042 130.224 58.6042 129.068C58.6042 127.912 57.6671 126.975 56.5112 126.975C55.3553 126.975 54.4182 127.912 54.4182 129.068C54.4182 130.224 55.3553 131.161 56.5112 131.161ZM58.6042 147.208C58.6042 148.364 57.6671 149.301 56.5112 149.301C55.3553 149.301 54.4182 148.364 54.4182 147.208C54.4182 146.052 55.3553 145.115 56.5112 145.115C57.6671 145.115 58.6042 146.052 58.6042 147.208ZM56.5112 167.44C57.6671 167.44 58.6042 166.503 58.6042 165.347C58.6042 164.191 57.6671 163.254 56.5112 163.254C55.3553 163.254 54.4182 164.191 54.4182 165.347C54.4182 166.503 55.3553 167.44 56.5112 167.44ZM58.6042 183.487C58.6042 184.642 57.6671 185.58 56.5112 185.58C55.3553 185.58 54.4182 184.642 54.4182 183.487C54.4182 182.331 55.3553 181.394 56.5112 181.394C57.6671 181.394 58.6042 182.331 58.6042 183.487ZM56.5112 203.718C57.6671 203.718 58.6042 202.781 58.6042 201.625C58.6042 200.469 57.6671 199.532 56.5112 199.532C55.3553 199.532 54.4182 200.469 54.4182 201.625C54.4182 202.781 55.3553 203.718 56.5112 203.718ZM58.6042 219.765C58.6042 220.921 57.6671 221.858 56.5112 221.858C55.3553 221.858 54.4182 220.921 54.4182 219.765C54.4182 218.609 55.3553 217.672 56.5112 217.672C57.6671 217.672 58.6042 218.609 58.6042 219.765ZM56.5112 239.998C57.6671 239.998 58.6042 239.06 58.6042 237.905C58.6042 236.749 57.6671 235.812 56.5112 235.812C55.3553 235.812 54.4182 236.749 54.4182 237.905C54.4182 239.06 55.3553 239.998 56.5112 239.998ZM76.7434 2.093C76.7434 3.24893 75.8063 4.186 74.6504 4.186C73.4944 4.186 72.5574 3.24893 72.5574 2.093C72.5574 0.937068 73.4944 0 74.6504 0C75.8063 0 76.7434 0.937068 76.7434 2.093ZM74.6504 22.3252C75.8063 22.3252 76.7434 21.3881 76.7434 20.2322C76.7434 19.0762 75.8063 18.1392 74.6504 18.1392C73.4944 18.1392 72.5574 19.0762 72.5574 20.2322C72.5574 21.3881 73.4944 22.3252 74.6504 22.3252ZM76.7434 38.3718C76.7434 39.5277 75.8063 40.4648 74.6504 40.4648C73.4944 40.4648 72.5574 39.5277 72.5574 38.3718C72.5574 37.2159 73.4944 36.2788 74.6504 36.2788C75.8063 36.2788 76.7434 37.2159 76.7434 38.3718ZM74.6504 58.6035C75.8063 58.6035 76.7434 57.6664 76.7434 56.5105C76.7434 55.3545 75.8063 54.4175 74.6504 54.4175C73.4944 54.4175 72.5574 55.3545 72.5574 56.5105C72.5574 57.6664 73.4944 58.6035 74.6504 58.6035ZM76.7434 74.6506C76.7434 75.8065 75.8063 76.7436 74.6504 76.7436C73.4944 76.7436 72.5574 75.8065 72.5574 74.6506C72.5574 73.4947 73.4944 72.5576 74.6504 72.5576C75.8063 72.5576 76.7434 73.4947 76.7434 74.6506ZM74.6504 94.8828C75.8063 94.8828 76.7434 93.9457 76.7434 92.7898C76.7434 91.6338 75.8063 90.6968 74.6504 90.6968C73.4944 90.6968 72.5574 91.6338 72.5574 92.7898C72.5574 93.9457 73.4944 94.8828 74.6504 94.8828ZM76.7434 110.929C76.7434 112.085 75.8063 113.022 74.6504 113.022C73.4944 113.022 72.5574 112.085 72.5574 110.929C72.5574 109.773 73.4944 108.836 74.6504 108.836C75.8063 108.836 76.7434 109.773 76.7434 110.929ZM74.6504 131.161C75.8063 131.161 76.7434 130.224 76.7434 129.068C76.7434 127.912 75.8063 126.975 74.6504 126.975C73.4944 126.975 72.5574 127.912 72.5574 129.068C72.5574 130.224 73.4944 131.161 74.6504 131.161ZM76.7434 147.208C76.7434 148.364 75.8063 149.301 74.6504 149.301C73.4944 149.301 72.5574 148.364 72.5574 147.208C72.5574 146.052 73.4944 145.115 74.6504 145.115C75.8063 145.115 76.7434 146.052 76.7434 147.208ZM74.6504 167.44C75.8063 167.44 76.7434 166.503 76.7434 165.347C76.7434 164.191 75.8063 163.254 74.6504 163.254C73.4944 163.254 72.5574 164.191 72.5574 165.347C72.5574 166.503 73.4944 167.44 74.6504 167.44ZM76.7434 183.487C76.7434 184.642 75.8063 185.58 74.6504 185.58C73.4944 185.58 72.5574 184.642 72.5574 183.487C72.5574 182.331 73.4944 181.394 74.6504 181.394C75.8063 181.394 76.7434 182.331 76.7434 183.487ZM74.6504 203.718C75.8063 203.718 76.7434 202.781 76.7434 201.625C76.7434 200.469 75.8063 199.532 74.6504 199.532C73.4944 199.532 72.5574 200.469 72.5574 201.625C72.5574 202.781 73.4944 203.718 74.6504 203.718ZM76.7434 219.765C76.7434 220.921 75.8063 221.858 74.6504 221.858C73.4944 221.858 72.5574 220.921 72.5574 219.765C72.5574 218.609 73.4944 217.672 74.6504 217.672C75.8063 217.672 76.7434 218.609 76.7434 219.765ZM74.6504 239.998C75.8063 239.998 76.7434 239.06 76.7434 237.905C76.7434 236.749 75.8063 235.812 74.6504 235.812C73.4944 235.812 72.5574 236.749 72.5574 237.905C72.5574 239.06 73.4944 239.998 74.6504 239.998ZM94.8827 2.093C94.8827 3.24893 93.9456 4.186 92.7897 4.186C91.6337 4.186 90.6967 3.24893 90.6967 2.093C90.6967 0.937068 91.6337 0 92.7897 0C93.9456 0 94.8827 0.937068 94.8827 2.093ZM92.7897 22.3252C93.9456 22.3252 94.8827 21.3881 94.8827 20.2322C94.8827 19.0762 93.9456 18.1392 92.7897 18.1392C91.6337 18.1392 90.6967 19.0762 90.6967 20.2322C90.6967 21.3881 91.6337 22.3252 92.7897 22.3252ZM94.8827 38.3718C94.8827 39.5277 93.9456 40.4648 92.7897 40.4648C91.6337 40.4648 90.6967 39.5277 90.6967 38.3718C90.6967 37.2159 91.6337 36.2788 92.7897 36.2788C93.9456 36.2788 94.8827 37.2159 94.8827 38.3718ZM92.7897 58.6035C93.9456 58.6035 94.8827 57.6664 94.8827 56.5105C94.8827 55.3545 93.9456 54.4175 92.7897 54.4175C91.6337 54.4175 90.6967 55.3545 90.6967 56.5105C90.6967 57.6664 91.6337 58.6035 92.7897 58.6035ZM94.8827 74.6506C94.8827 75.8065 93.9456 76.7436 92.7897 76.7436C91.6337 76.7436 90.6967 75.8065 90.6967 74.6506C90.6967 73.4947 91.6337 72.5576 92.7897 72.5576C93.9456 72.5576 94.8827 73.4947 94.8827 74.6506ZM92.7897 94.8828C93.9456 94.8828 94.8827 93.9457 94.8827 92.7898C94.8827 91.6338 93.9456 90.6968 92.7897 90.6968C91.6337 90.6968 90.6967 91.6338 90.6967 92.7898C90.6967 93.9457 91.6337 94.8828 92.7897 94.8828ZM94.8827 110.929C94.8827 112.085 93.9456 113.022 92.7897 113.022C91.6337 113.022 90.6967 112.085 90.6967 110.929C90.6967 109.773 91.6337 108.836 92.7897 108.836C93.9456 108.836 94.8827 109.773 94.8827 110.929ZM92.7897 131.161C93.9456 131.161 94.8827 130.224 94.8827 129.068C94.8827 127.912 93.9456 126.975 92.7897 126.975C91.6337 126.975 90.6967 127.912 90.6967 129.068C90.6967 130.224 91.6337 131.161 92.7897 131.161ZM94.8827 147.208C94.8827 148.364 93.9456 149.301 92.7897 149.301C91.6337 149.301 90.6967 148.364 90.6967 147.208C90.6967 146.052 91.6337 145.115 92.7897 145.115C93.9456 145.115 94.8827 146.052 94.8827 147.208ZM92.7897 167.44C93.9456 167.44 94.8827 166.503 94.8827 165.347C94.8827 164.191 93.9456 163.254 92.7897 163.254C91.6337 163.254 90.6967 164.191 90.6967 165.347C90.6967 166.503 91.6337 167.44 92.7897 167.44ZM94.8827 183.487C94.8827 184.642 93.9456 185.58 92.7897 185.58C91.6337 185.58 90.6967 184.642 90.6967 183.487C90.6967 182.331 91.6337 181.394 92.7897 181.394C93.9456 181.394 94.8827 182.331 94.8827 183.487ZM92.7897 203.718C93.9456 203.718 94.8827 202.781 94.8827 201.625C94.8827 200.469 93.9456 199.532 92.7897 199.532C91.6337 199.532 90.6967 200.469 90.6967 201.625C90.6967 202.781 91.6337 203.718 92.7897 203.718ZM94.8827 219.765C94.8827 220.921 93.9456 221.858 92.7897 221.858C91.6337 221.858 90.6967 220.921 90.6967 219.765C90.6967 218.609 91.6337 217.672 92.7897 217.672C93.9456 217.672 94.8827 218.609 94.8827 219.765ZM92.7897 239.998C93.9456 239.998 94.8827 239.06 94.8827 237.905C94.8827 236.749 93.9456 235.812 92.7897 235.812C91.6337 235.812 90.6967 236.749 90.6967 237.905C90.6967 239.06 91.6337 239.998 92.7897 239.998ZM113.022 2.093C113.022 3.24893 112.085 4.186 110.929 4.186C109.773 4.186 108.836 3.24893 108.836 2.093C108.836 0.937068 109.773 0 110.929 0C112.085 0 113.022 0.937068 113.022 2.093ZM110.929 22.3252C112.085 22.3252 113.022 21.3881 113.022 20.2322C113.022 19.0762 112.085 18.1392 110.929 18.1392C109.773 18.1392 108.836 19.0762 108.836 20.2322C108.836 21.3881 109.773 22.3252 110.929 22.3252ZM113.022 38.3718C113.022 39.5277 112.085 40.4648 110.929 40.4648C109.773 40.4648 108.836 39.5277 108.836 38.3718C108.836 37.2159 109.773 36.2788 110.929 36.2788C112.085 36.2788 113.022 37.2159 113.022 38.3718ZM110.929 58.6035C112.085 58.6035 113.022 57.6664 113.022 56.5105C113.022 55.3545 112.085 54.4175 110.929 54.4175C109.773 54.4175 108.836 55.3545 108.836 56.5105C108.836 57.6664 109.773 58.6035 110.929 58.6035ZM113.022 74.6506C113.022 75.8065 112.085 76.7436 110.929 76.7436C109.773 76.7436 108.836 75.8065 108.836 74.6506C108.836 73.4947 109.773 72.5576 110.929 72.5576C112.085 72.5576 113.022 73.4947 113.022 74.6506ZM110.929 94.8828C112.085 94.8828 113.022 93.9457 113.022 92.7898C113.022 91.6338 112.085 90.6968 110.929 90.6968C109.773 90.6968 108.836 91.6338 108.836 92.7898C108.836 93.9457 109.773 94.8828 110.929 94.8828ZM113.022 110.929C113.022 112.085 112.085 113.022 110.929 113.022C109.773 113.022 108.836 112.085 108.836 110.929C108.836 109.773 109.773 108.836 110.929 108.836C112.085 108.836 113.022 109.773 113.022 110.929ZM110.929 131.161C112.085 131.161 113.022 130.224 113.022 129.068C113.022 127.912 112.085 126.975 110.929 126.975C109.773 126.975 108.836 127.912 108.836 129.068C108.836 130.224 109.773 131.161 110.929 131.161ZM113.022 147.208C113.022 148.364 112.085 149.301 110.929 149.301C109.773 149.301 108.836 148.364 108.836 147.208C108.836 146.052 109.773 145.115 110.929 145.115C112.085 145.115 113.022 146.052 113.022 147.208ZM110.929 167.44C112.085 167.44 113.022 166.503 113.022 165.347C113.022 164.191 112.085 163.254 110.929 163.254C109.773 163.254 108.836 164.191 108.836 165.347C108.836 166.503 109.773 167.44 110.929 167.44ZM113.022 183.487C113.022 184.642 112.085 185.58 110.929 185.58C109.773 185.58 108.836 184.642 108.836 183.487C108.836 182.331 109.773 181.394 110.929 181.394C112.085 181.394 113.022 182.331 113.022 183.487ZM110.929 203.718C112.085 203.718 113.022 202.781 113.022 201.625C113.022 200.469 112.085 199.532 110.929 199.532C109.773 199.532 108.836 200.469 108.836 201.625C108.836 202.781 109.773 203.718 110.929 203.718ZM113.022 219.765C113.022 220.921 112.085 221.858 110.929 221.858C109.773 221.858 108.836 220.921 108.836 219.765C108.836 218.609 109.773 217.672 110.929 217.672C112.085 217.672 113.022 218.609 113.022 219.765ZM110.929 239.998C112.085 239.998 113.022 239.06 113.022 237.905C113.022 236.749 112.085 235.812 110.929 235.812C109.773 235.812 108.836 236.749 108.836 237.905C108.836 239.06 109.773 239.998 110.929 239.998ZM131.161 2.093C131.161 3.24893 130.224 4.186 129.068 4.186C127.912 4.186 126.975 3.24893 126.975 2.093C126.975 0.937068 127.912 0 129.068 0C130.224 0 131.161 0.937068 131.161 2.093ZM129.068 22.3252C130.224 22.3252 131.161 21.3881 131.161 20.2322C131.161 19.0762 130.224 18.1392 129.068 18.1392C127.912 18.1392 126.975 19.0762 126.975 20.2322C126.975 21.3881 127.912 22.3252 129.068 22.3252ZM131.161 38.3718C131.161 39.5277 130.224 40.4648 129.068 40.4648C127.912 40.4648 126.975 39.5277 126.975 38.3718C126.975 37.2159 127.912 36.2788 129.068 36.2788C130.224 36.2788 131.161 37.2159 131.161 38.3718ZM129.068 58.6035C130.224 58.6035 131.161 57.6664 131.161 56.5105C131.161 55.3545 130.224 54.4175 129.068 54.4175C127.912 54.4175 126.975 55.3545 126.975 56.5105C126.975 57.6664 127.912 58.6035 129.068 58.6035ZM131.161 74.6506C131.161 75.8065 130.224 76.7436 129.068 76.7436C127.912 76.7436 126.975 75.8065 126.975 74.6506C126.975 73.4947 127.912 72.5576 129.068 72.5576C130.224 72.5576 131.161 73.4947 131.161 74.6506ZM129.068 94.8828C130.224 94.8828 131.161 93.9457 131.161 92.7898C131.161 91.6338 130.224 90.6968 129.068 90.6968C127.912 90.6968 126.975 91.6338 126.975 92.7898C126.975 93.9457 127.912 94.8828 129.068 94.8828ZM131.161 110.929C131.161 112.085 130.224 113.022 129.068 113.022C127.912 113.022 126.975 112.085 126.975 110.929C126.975 109.773 127.912 108.836 129.068 108.836C130.224 108.836 131.161 109.773 131.161 110.929ZM129.068 131.161C130.224 131.161 131.161 130.224 131.161 129.068C131.161 127.912 130.224 126.975 129.068 126.975C127.912 126.975 126.975 127.912 126.975 129.068C126.975 130.224 127.912 131.161 129.068 131.161ZM131.161 147.208C131.161 148.364 130.224 149.301 129.068 149.301C127.912 149.301 126.975 148.364 126.975 147.208C126.975 146.052 127.912 145.115 129.068 145.115C130.224 145.115 131.161 146.052 131.161 147.208ZM129.068 167.44C130.224 167.44 131.161 166.503 131.161 165.347C131.161 164.191 130.224 163.254 129.068 163.254C127.912 163.254 126.975 164.191 126.975 165.347C126.975 166.503 127.912 167.44 129.068 167.44ZM131.161 183.487C131.161 184.642 130.224 185.58 129.068 185.58C127.912 185.58 126.975 184.642 126.975 183.487C126.975 182.331 127.912 181.394 129.068 181.394C130.224 181.394 131.161 182.331 131.161 183.487ZM129.068 203.718C130.224 203.718 131.161 202.781 131.161 201.625C131.161 200.469 130.224 199.532 129.068 199.532C127.912 199.532 126.975 200.469 126.975 201.625C126.975 202.781 127.912 203.718 129.068 203.718ZM131.161 219.765C131.161 220.921 130.224 221.858 129.068 221.858C127.912 221.858 126.975 220.921 126.975 219.765C126.975 218.609 127.912 217.672 129.068 217.672C130.224 217.672 131.161 218.609 131.161 219.765ZM129.068 239.998C130.224 239.998 131.161 239.06 131.161 237.905C131.161 236.749 130.224 235.812 129.068 235.812C127.912 235.812 126.975 236.749 126.975 237.905C126.975 239.06 127.912 239.998 129.068 239.998ZM149.301 2.093C149.301 3.24893 148.364 4.186 147.208 4.186C146.052 4.186 145.115 3.24893 145.115 2.093C145.115 0.937068 146.052 0 147.208 0C148.364 0 149.301 0.937068 149.301 2.093ZM147.208 22.3252C148.364 22.3252 149.301 21.3881 149.301 20.2322C149.301 19.0762 148.364 18.1392 147.208 18.1392C146.052 18.1392 145.115 19.0762 145.115 20.2322C145.115 21.3881 146.052 22.3252 147.208 22.3252ZM149.301 38.3718C149.301 39.5277 148.364 40.4648 147.208 40.4648C146.052 40.4648 145.115 39.5277 145.115 38.3718C145.115 37.2159 146.052 36.2788 147.208 36.2788C148.364 36.2788 149.301 37.2159 149.301 38.3718ZM147.208 58.6035C148.364 58.6035 149.301 57.6664 149.301 56.5105C149.301 55.3545 148.364 54.4175 147.208 54.4175C146.052 54.4175 145.115 55.3545 145.115 56.5105C145.115 57.6664 146.052 58.6035 147.208 58.6035ZM149.301 74.6506C149.301 75.8065 148.364 76.7436 147.208 76.7436C146.052 76.7436 145.115 75.8065 145.115 74.6506C145.115 73.4947 146.052 72.5576 147.208 72.5576C148.364 72.5576 149.301 73.4947 149.301 74.6506ZM147.208 94.8828C148.364 94.8828 149.301 93.9457 149.301 92.7898C149.301 91.6338 148.364 90.6968 147.208 90.6968C146.052 90.6968 145.115 91.6338 145.115 92.7898C145.115 93.9457 146.052 94.8828 147.208 94.8828ZM149.301 110.929C149.301 112.085 148.364 113.022 147.208 113.022C146.052 113.022 145.115 112.085 145.115 110.929C145.115 109.773 146.052 108.836 147.208 108.836C148.364 108.836 149.301 109.773 149.301 110.929ZM147.208 131.161C148.364 131.161 149.301 130.224 149.301 129.068C149.301 127.912 148.364 126.975 147.208 126.975C146.052 126.975 145.115 127.912 145.115 129.068C145.115 130.224 146.052 131.161 147.208 131.161ZM149.301 147.208C149.301 148.364 148.364 149.301 147.208 149.301C146.052 149.301 145.115 148.364 145.115 147.208C145.115 146.052 146.052 145.115 147.208 145.115C148.364 145.115 149.301 146.052 149.301 147.208ZM147.208 167.44C148.364 167.44 149.301 166.503 149.301 165.347C149.301 164.191 148.364 163.254 147.208 163.254C146.052 163.254 145.115 164.191 145.115 165.347C145.115 166.503 146.052 167.44 147.208 167.44ZM149.301 183.487C149.301 184.642 148.364 185.58 147.208 185.58C146.052 185.58 145.115 184.642 145.115 183.487C145.115 182.331 146.052 181.394 147.208 181.394C148.364 181.394 149.301 182.331 149.301 183.487ZM147.208 203.718C148.364 203.718 149.301 202.781 149.301 201.625C149.301 200.469 148.364 199.532 147.208 199.532C146.052 199.532 145.115 200.469 145.115 201.625C145.115 202.781 146.052 203.718 147.208 203.718ZM149.301 219.765C149.301 220.921 148.364 221.858 147.208 221.858C146.052 221.858 145.115 220.921 145.115 219.765C145.115 218.609 146.052 217.672 147.208 217.672C148.364 217.672 149.301 218.609 149.301 219.765ZM147.208 239.998C148.364 239.998 149.301 239.06 149.301 237.905C149.301 236.749 148.364 235.812 147.208 235.812C146.052 235.812 145.115 236.749 145.115 237.905C145.115 239.06 146.052 239.998 147.208 239.998ZM167.44 2.093C167.44 3.24893 166.503 4.186 165.347 4.186C164.191 4.186 163.254 3.24893 163.254 2.093C163.254 0.937068 164.191 0 165.347 0C166.503 0 167.44 0.937068 167.44 2.093ZM165.347 22.3252C166.503 22.3252 167.44 21.3881 167.44 20.2322C167.44 19.0762 166.503 18.1392 165.347 18.1392C164.191 18.1392 163.254 19.0762 163.254 20.2322C163.254 21.3881 164.191 22.3252 165.347 22.3252ZM167.44 38.3718C167.44 39.5277 166.503 40.4648 165.347 40.4648C164.191 40.4648 163.254 39.5277 163.254 38.3718C163.254 37.2159 164.191 36.2788 165.347 36.2788C166.503 36.2788 167.44 37.2159 167.44 38.3718ZM165.347 58.6035C166.503 58.6035 167.44 57.6664 167.44 56.5105C167.44 55.3545 166.503 54.4175 165.347 54.4175C164.191 54.4175 163.254 55.3545 163.254 56.5105C163.254 57.6664 164.191 58.6035 165.347 58.6035ZM167.44 74.6506C167.44 75.8065 166.503 76.7436 165.347 76.7436C164.191 76.7436 163.254 75.8065 163.254 74.6506C163.254 73.4947 164.191 72.5576 165.347 72.5576C166.503 72.5576 167.44 73.4947 167.44 74.6506ZM165.347 94.8828C166.503 94.8828 167.44 93.9457 167.44 92.7898C167.44 91.6338 166.503 90.6968 165.347 90.6968C164.191 90.6968 163.254 91.6338 163.254 92.7898C163.254 93.9457 164.191 94.8828 165.347 94.8828ZM167.44 110.929C167.44 112.085 166.503 113.022 165.347 113.022C164.191 113.022 163.254 112.085 163.254 110.929C163.254 109.773 164.191 108.836 165.347 108.836C166.503 108.836 167.44 109.773 167.44 110.929ZM165.347 131.161C166.503 131.161 167.44 130.224 167.44 129.068C167.44 127.912 166.503 126.975 165.347 126.975C164.191 126.975 163.254 127.912 163.254 129.068C163.254 130.224 164.191 131.161 165.347 131.161ZM167.44 147.208C167.44 148.364 166.503 149.301 165.347 149.301C164.191 149.301 163.254 148.364 163.254 147.208C163.254 146.052 164.191 145.115 165.347 145.115C166.503 145.115 167.44 146.052 167.44 147.208ZM165.347 167.44C166.503 167.44 167.44 166.503 167.44 165.347C167.44 164.191 166.503 163.254 165.347 163.254C164.191 163.254 163.254 164.191 163.254 165.347C163.254 166.503 164.191 167.44 165.347 167.44ZM167.44 183.487C167.44 184.642 166.503 185.58 165.347 185.58C164.191 185.58 163.254 184.642 163.254 183.487C163.254 182.331 164.191 181.394 165.347 181.394C166.503 181.394 167.44 182.331 167.44 183.487ZM165.347 203.718C166.503 203.718 167.44 202.781 167.44 201.625C167.44 200.469 166.503 199.532 165.347 199.532C164.191 199.532 163.254 200.469 163.254 201.625C163.254 202.781 164.191 203.718 165.347 203.718ZM167.44 219.765C167.44 220.921 166.503 221.858 165.347 221.858C164.191 221.858 163.254 220.921 163.254 219.765C163.254 218.609 164.191 217.672 165.347 217.672C166.503 217.672 167.44 218.609 167.44 219.765ZM165.347 239.998C166.503 239.998 167.44 239.06 167.44 237.905C167.44 236.749 166.503 235.812 165.347 235.812C164.191 235.812 163.254 236.749 163.254 237.905C163.254 239.06 164.191 239.998 165.347 239.998Z" fill="#262B35"/>
</g>
</svg>
