<svg width="60" height="60" viewBox="0 0 60 60" fill="none" xmlns="http://www.w3.org/2000/svg">
<circle cx="30" cy="30" r="30" fill="white"/>
<path fill-rule="evenodd" clip-rule="evenodd" d="M47.8651 33.7806L47.8693 33.7889L47.8731 33.7963C47.9569 34.0089 48 34.2352 48 34.4634V47.2194C48 47.5509 47.7314 47.8195 47.3999 47.8195H12.6001C12.2686 47.8195 12 47.5509 12 47.2194V34.4634C11.9995 34.0336 12.1533 33.6178 12.4334 33.2917L15.3843 29.8492C15.7268 29.4501 16.2262 29.2202 16.7521 29.2194H19.1999V22.0195C19.204 18.3761 22.1566 15.4236 25.7999 15.4195H38.1793L38.9091 13.0294C39.0865 12.4603 39.6523 12.1057 40.2415 12.1941L41.5845 12.4034C42.1734 12.4976 42.6052 13.0082 42.5999 13.6045L42.5681 16.1283C44.7947 17.2479 46.1999 19.5272 46.1999 22.0195V31.6973L47.5677 33.2928C47.6907 33.4395 47.791 33.604 47.8651 33.7806ZM36.0551 29.925L36.9197 33.4195L39.9525 33.4192C40.3673 32.3714 40.2511 31.2016 40.1223 29.9686L40.1132 29.8813C39.966 28.5355 39.7993 27.0065 40.4867 25.5703L40.0739 25.5282H40.0717L37.2971 25.097C37.4965 26.6357 36.8919 28.0102 36.3072 29.3394L36.307 29.34C36.2218 29.5347 36.1381 29.73 36.0551 29.925ZM23.4 36.4195V34.0196H18.6V36.4195C18.6011 37.4133 19.4064 38.2183 20.3999 38.2194H21.6001C22.5936 38.2183 23.3989 37.4133 23.4 36.4195ZM41.2508 29.2194H42.5999V22.0195C42.6027 21.2507 42.3066 20.5111 41.7746 19.956L41.3055 21.4919L40.8454 24.4565C41.1437 24.5535 41.3934 24.7617 41.5425 25.0377C41.7186 25.3629 41.7287 25.7526 41.57 26.0866C41.178 27.082 41.0676 28.1658 41.2508 29.2194ZM39.6633 24.2494L40.0313 21.8778L39.7748 21.8377L38.8404 21.6921L38.4727 24.0649L39.6633 24.2494ZM37.2831 23.9042L37.7426 20.9409L37.7671 19.0194H25.7999C24.144 19.0213 22.802 20.3633 22.8001 22.0195V29.2194H28.4614L27.0353 23.4535C26.8771 22.8091 27.2713 22.1582 27.9156 22L32.5741 20.8489C32.8754 20.7703 33.1959 20.8159 33.4637 20.975C33.7428 21.1378 33.9449 21.4056 34.0248 21.7187L35.578 27.9961C35.9919 27.1388 36.1705 26.1872 36.0958 25.2382C36.045 24.8724 36.1718 24.5043 36.4372 24.2472C36.6643 24.0281 36.9673 23.905 37.2831 23.9042ZM29.4284 33.1308L28.758 30.4194H27.1046L29.4284 33.1308ZM32.5425 33.2154C32.5573 33.2824 32.5604 33.3513 32.5516 33.4195H35.6835L32.8619 22.0137L28.1999 23.1659L28.92 26.0767L30.0868 25.7883C30.2958 25.734 30.518 25.7963 30.6685 25.9515C30.8188 26.1067 30.8742 26.3305 30.8133 26.5379C30.7526 26.7453 30.585 26.904 30.3746 26.9532L29.2084 27.2421L29.4966 28.4069L30.663 28.118C30.983 28.043 31.3038 28.2391 31.3826 28.5583C31.4615 28.8772 31.2692 29.2002 30.9511 29.2828L29.7844 29.5718L30.0722 30.7369L31.2393 30.4477C31.4477 30.3952 31.6686 30.4581 31.8177 30.6127C31.9671 30.7676 32.0223 30.9904 31.9624 31.1969C31.9023 31.4032 31.7364 31.5619 31.5277 31.6128L30.3604 31.9017L30.6485 33.0665L31.816 32.7776C31.9704 32.7391 32.1338 32.7638 32.2701 32.846C32.4063 32.9281 32.5043 33.061 32.5425 33.2154ZM43.2481 30.4194H41.3736C41.5115 31.4205 41.4585 32.4384 41.2176 33.4195H46.0955L43.7043 30.63C43.5895 30.4979 43.4234 30.4213 43.2481 30.4194ZM44.9999 30.2974V22.0195C44.9988 20.1828 44.0628 18.4731 42.5162 17.4827C42.5132 17.4962 42.5117 17.5101 42.5103 17.5239C42.5085 17.5415 42.5067 17.559 42.5016 17.5758L42.1588 18.6978C43.1968 19.4863 43.8043 20.7162 43.7999 22.0195V29.3216C44.115 29.418 44.3968 29.6001 44.6146 29.8475L44.9999 30.2974ZM41.4 13.5894L40.0569 13.3801L38.9948 16.8576L38.975 18.4141L38.9761 18.4195L38.975 18.4256L38.9486 20.4938L39.7844 20.6248L40.2917 20.7036L41.3541 17.2259V17.224L41.4 13.5894ZM25.7999 16.6194C22.8191 16.6227 20.4034 19.0386 20.3999 22.0195V32.8196H21.6001V22.0195C21.6026 19.7008 23.4815 17.8222 25.7999 17.8194H37.7824L37.7948 16.8427C37.7992 16.7675 37.8107 16.6925 37.8297 16.6194H25.7999ZM13.3436 34.0737C13.2505 34.1822 13.1997 34.3206 13.2 34.4634V46.6195H28.8V34.4634C28.8 34.3865 28.7855 34.3104 28.7575 34.2388C28.7303 34.1759 28.6937 34.1174 28.649 34.0652L25.7043 30.63C25.5895 30.4979 25.4234 30.4213 25.2481 30.4194H22.8001V32.8196H23.4C24.0624 32.8201 24.5994 33.3571 24.5999 34.0196V36.4195C24.598 38.0755 23.256 39.4174 21.6001 39.4194H20.3999C18.744 39.4174 17.402 38.0755 17.4001 36.4195V34.0196C17.4006 33.3571 17.9376 32.8201 18.6 32.8196H19.1999V30.4194H16.7521C16.5761 30.4213 16.4094 30.4985 16.2943 30.6314L13.3436 34.0737ZM30 34.6194V46.6195H46.8V34.6194H30ZM30.3691 24.2454C30.4053 24.0053 30.5825 23.8109 30.8181 23.7524C31.1398 23.6727 31.465 23.8688 31.5446 24.1904C31.6031 24.4261 31.5138 24.6736 31.3186 24.8178C31.1233 24.9617 30.8604 24.974 30.6525 24.8488C30.4446 24.7233 30.3328 24.4851 30.3691 24.2454ZM33.0003 35.8193H31.8003C31.4688 35.8193 31.2002 36.088 31.2002 36.4195C31.2002 36.7507 31.4688 37.0193 31.8003 37.0193H33.0003C33.3315 37.0193 33.6002 36.7507 33.6002 36.4195C33.6002 36.088 33.3315 35.8193 33.0003 35.8193ZM35.3999 35.8193H44.9998C45.3313 35.8193 45.5999 36.088 45.5999 36.4195C45.5999 36.7507 45.3313 37.0193 44.9998 37.0193H35.3999C35.0684 37.0193 34.7998 36.7507 34.7998 36.4195C34.7998 36.088 35.0684 35.8193 35.3999 35.8193Z" fill="#1C57C9"/>
</svg>
