<svg width="241" height="168" viewBox="0 0 241 168" fill="none" xmlns="http://www.w3.org/2000/svg">
<g opacity="0.4">
<path opacity="0.4" fill-rule="evenodd" clip-rule="evenodd" d="M4.46725 165.626C4.46725 164.47 3.53018 163.533 2.37425 163.533C1.21832 163.533 0.28125 164.47 0.28125 165.626C0.28125 166.782 1.21832 167.719 2.37425 167.719C3.53018 167.719 4.46725 166.782 4.46725 165.626ZM22.6064 165.626C22.6064 164.47 21.6693 163.533 20.5134 163.533C19.3575 163.533 18.4204 164.47 18.4204 165.626C18.4204 166.782 19.3575 167.719 20.5134 167.719C21.6693 167.719 22.6064 166.782 22.6064 165.626ZM38.6531 163.533C39.809 163.533 40.7461 164.47 40.7461 165.626C40.7461 166.782 39.809 167.719 38.6531 167.719C37.4971 167.719 36.5601 166.782 36.5601 165.626C36.5601 164.47 37.4971 163.533 38.6531 163.533ZM58.8847 165.626C58.8847 164.47 57.9477 163.533 56.7917 163.533C55.6358 163.533 54.6987 164.47 54.6987 165.626C54.6987 166.782 55.6358 167.719 56.7917 167.719C57.9477 167.719 58.8847 166.782 58.8847 165.626ZM74.9319 163.533C76.0878 163.533 77.0249 164.47 77.0249 165.626C77.0249 166.782 76.0878 167.719 74.9319 167.719C73.7759 167.719 72.8389 166.782 72.8389 165.626C72.8389 164.47 73.7759 163.533 74.9319 163.533ZM95.164 165.626C95.164 164.47 94.227 163.533 93.071 163.533C91.9151 163.533 90.978 164.47 90.978 165.626C90.978 166.782 91.9151 167.719 93.071 167.719C94.227 167.719 95.164 166.782 95.164 165.626ZM111.211 163.533C112.367 163.533 113.304 164.47 113.304 165.626C113.304 166.782 112.367 167.719 111.211 167.719C110.055 167.719 109.118 166.782 109.118 165.626C109.118 164.47 110.055 163.533 111.211 163.533ZM131.442 165.626C131.442 164.47 130.505 163.533 129.349 163.533C128.193 163.533 127.256 164.47 127.256 165.626C127.256 166.782 128.193 167.719 129.349 167.719C130.505 167.719 131.442 166.782 131.442 165.626ZM147.489 163.533C148.645 163.533 149.582 164.47 149.582 165.626C149.582 166.782 148.645 167.719 147.489 167.719C146.333 167.719 145.396 166.782 145.396 165.626C145.396 164.47 146.333 163.533 147.489 163.533ZM167.721 165.626C167.721 164.47 166.784 163.533 165.628 163.533C164.472 163.533 163.535 164.47 163.535 165.626C163.535 166.782 164.472 167.719 165.628 167.719C166.784 167.719 167.721 166.782 167.721 165.626ZM183.768 163.533C184.924 163.533 185.861 164.47 185.861 165.626C185.861 166.782 184.924 167.719 183.768 167.719C182.612 167.719 181.675 166.782 181.675 165.626C181.675 164.47 182.612 163.533 183.768 163.533ZM203.999 165.626C203.999 164.47 203.062 163.533 201.906 163.533C200.751 163.533 199.813 164.47 199.813 165.626C199.813 166.782 200.751 167.719 201.906 167.719C203.062 167.719 203.999 166.782 203.999 165.626ZM220.046 163.533C221.202 163.533 222.139 164.47 222.139 165.626C222.139 166.782 221.202 167.719 220.046 167.719C218.89 167.719 217.953 166.782 217.953 165.626C217.953 164.47 218.89 163.533 220.046 163.533ZM240.279 165.626C240.279 164.47 239.342 163.533 238.186 163.533C237.03 163.533 236.093 164.47 236.093 165.626C236.093 166.782 237.03 167.719 238.186 167.719C239.342 167.719 240.279 166.782 240.279 165.626ZM2.37425 145.393C3.53018 145.393 4.46725 146.33 4.46725 147.486C4.46725 148.642 3.53018 149.579 2.37425 149.579C1.21832 149.579 0.28125 148.642 0.28125 147.486C0.28125 146.33 1.21832 145.393 2.37425 145.393ZM22.6064 147.486C22.6064 146.33 21.6693 145.393 20.5134 145.393C19.3575 145.393 18.4204 146.33 18.4204 147.486C18.4204 148.642 19.3575 149.579 20.5134 149.579C21.6693 149.579 22.6064 148.642 22.6064 147.486ZM38.6531 145.393C39.809 145.393 40.7461 146.33 40.7461 147.486C40.7461 148.642 39.809 149.579 38.6531 149.579C37.4971 149.579 36.5601 148.642 36.5601 147.486C36.5601 146.33 37.4971 145.393 38.6531 145.393ZM58.8847 147.486C58.8847 146.33 57.9477 145.393 56.7917 145.393C55.6358 145.393 54.6987 146.33 54.6987 147.486C54.6987 148.642 55.6358 149.579 56.7917 149.579C57.9477 149.579 58.8847 148.642 58.8847 147.486ZM74.9319 145.393C76.0878 145.393 77.0249 146.33 77.0249 147.486C77.0249 148.642 76.0878 149.579 74.9319 149.579C73.7759 149.579 72.8389 148.642 72.8389 147.486C72.8389 146.33 73.7759 145.393 74.9319 145.393ZM95.164 147.486C95.164 146.33 94.227 145.393 93.071 145.393C91.9151 145.393 90.978 146.33 90.978 147.486C90.978 148.642 91.9151 149.579 93.071 149.579C94.227 149.579 95.164 148.642 95.164 147.486ZM111.211 145.393C112.367 145.393 113.304 146.33 113.304 147.486C113.304 148.642 112.367 149.579 111.211 149.579C110.055 149.579 109.118 148.642 109.118 147.486C109.118 146.33 110.055 145.393 111.211 145.393ZM131.442 147.486C131.442 146.33 130.505 145.393 129.349 145.393C128.193 145.393 127.256 146.33 127.256 147.486C127.256 148.642 128.193 149.579 129.349 149.579C130.505 149.579 131.442 148.642 131.442 147.486ZM147.489 145.393C148.645 145.393 149.582 146.33 149.582 147.486C149.582 148.642 148.645 149.579 147.489 149.579C146.333 149.579 145.396 148.642 145.396 147.486C145.396 146.33 146.333 145.393 147.489 145.393ZM167.721 147.486C167.721 146.33 166.784 145.393 165.628 145.393C164.472 145.393 163.535 146.33 163.535 147.486C163.535 148.642 164.472 149.579 165.628 149.579C166.784 149.579 167.721 148.642 167.721 147.486ZM183.768 145.393C184.924 145.393 185.861 146.33 185.861 147.486C185.861 148.642 184.924 149.579 183.768 149.579C182.612 149.579 181.675 148.642 181.675 147.486C181.675 146.33 182.612 145.393 183.768 145.393ZM203.999 147.486C203.999 146.33 203.062 145.393 201.906 145.393C200.751 145.393 199.813 146.33 199.813 147.486C199.813 148.642 200.751 149.579 201.906 149.579C203.062 149.579 203.999 148.642 203.999 147.486ZM220.046 145.393C221.202 145.393 222.139 146.33 222.139 147.486C222.139 148.642 221.202 149.579 220.046 149.579C218.89 149.579 217.953 148.642 217.953 147.486C217.953 146.33 218.89 145.393 220.046 145.393ZM240.279 147.486C240.279 146.33 239.342 145.393 238.186 145.393C237.03 145.393 236.093 146.33 236.093 147.486C236.093 148.642 237.03 149.579 238.186 149.579C239.342 149.579 240.279 148.642 240.279 147.486ZM2.37425 127.254C3.53018 127.254 4.46725 128.191 4.46725 129.347C4.46725 130.503 3.53018 131.44 2.37425 131.44C1.21832 131.44 0.28125 130.503 0.28125 129.347C0.28125 128.191 1.21832 127.254 2.37425 127.254ZM22.6064 129.347C22.6064 128.191 21.6693 127.254 20.5134 127.254C19.3575 127.254 18.4204 128.191 18.4204 129.347C18.4204 130.503 19.3575 131.44 20.5134 131.44C21.6693 131.44 22.6064 130.503 22.6064 129.347ZM38.6531 127.254C39.809 127.254 40.7461 128.191 40.7461 129.347C40.7461 130.503 39.809 131.44 38.6531 131.44C37.4971 131.44 36.5601 130.503 36.5601 129.347C36.5601 128.191 37.4971 127.254 38.6531 127.254ZM58.8847 129.347C58.8847 128.191 57.9477 127.254 56.7917 127.254C55.6358 127.254 54.6987 128.191 54.6987 129.347C54.6987 130.503 55.6358 131.44 56.7917 131.44C57.9477 131.44 58.8847 130.503 58.8847 129.347ZM74.9319 127.254C76.0878 127.254 77.0249 128.191 77.0249 129.347C77.0249 130.503 76.0878 131.44 74.9319 131.44C73.7759 131.44 72.8389 130.503 72.8389 129.347C72.8389 128.191 73.7759 127.254 74.9319 127.254ZM95.164 129.347C95.164 128.191 94.227 127.254 93.071 127.254C91.9151 127.254 90.978 128.191 90.978 129.347C90.978 130.503 91.9151 131.44 93.071 131.44C94.227 131.44 95.164 130.503 95.164 129.347ZM111.211 127.254C112.367 127.254 113.304 128.191 113.304 129.347C113.304 130.503 112.367 131.44 111.211 131.44C110.055 131.44 109.118 130.503 109.118 129.347C109.118 128.191 110.055 127.254 111.211 127.254ZM131.442 129.347C131.442 128.191 130.505 127.254 129.349 127.254C128.193 127.254 127.256 128.191 127.256 129.347C127.256 130.503 128.193 131.44 129.349 131.44C130.505 131.44 131.442 130.503 131.442 129.347ZM147.489 127.254C148.645 127.254 149.582 128.191 149.582 129.347C149.582 130.503 148.645 131.44 147.489 131.44C146.333 131.44 145.396 130.503 145.396 129.347C145.396 128.191 146.333 127.254 147.489 127.254ZM167.721 129.347C167.721 128.191 166.784 127.254 165.628 127.254C164.472 127.254 163.535 128.191 163.535 129.347C163.535 130.503 164.472 131.44 165.628 131.44C166.784 131.44 167.721 130.503 167.721 129.347ZM183.768 127.254C184.924 127.254 185.861 128.191 185.861 129.347C185.861 130.503 184.924 131.44 183.768 131.44C182.612 131.44 181.675 130.503 181.675 129.347C181.675 128.191 182.612 127.254 183.768 127.254ZM203.999 129.347C203.999 128.191 203.062 127.254 201.906 127.254C200.751 127.254 199.813 128.191 199.813 129.347C199.813 130.503 200.751 131.44 201.906 131.44C203.062 131.44 203.999 130.503 203.999 129.347ZM220.046 127.254C221.202 127.254 222.139 128.191 222.139 129.347C222.139 130.503 221.202 131.44 220.046 131.44C218.89 131.44 217.953 130.503 217.953 129.347C217.953 128.191 218.89 127.254 220.046 127.254ZM240.279 129.347C240.279 128.191 239.342 127.254 238.186 127.254C237.03 127.254 236.093 128.191 236.093 129.347C236.093 130.503 237.03 131.44 238.186 131.44C239.342 131.44 240.279 130.503 240.279 129.347ZM2.37425 109.115C3.53018 109.115 4.46725 110.052 4.46725 111.208C4.46725 112.363 3.53018 113.301 2.37425 113.301C1.21832 113.301 0.28125 112.363 0.28125 111.208C0.28125 110.052 1.21832 109.115 2.37425 109.115ZM22.6064 111.208C22.6064 110.052 21.6693 109.115 20.5134 109.115C19.3575 109.115 18.4204 110.052 18.4204 111.208C18.4204 112.363 19.3575 113.301 20.5134 113.301C21.6693 113.301 22.6064 112.363 22.6064 111.208ZM38.6531 109.115C39.809 109.115 40.7461 110.052 40.7461 111.208C40.7461 112.363 39.809 113.301 38.6531 113.301C37.4971 113.301 36.5601 112.363 36.5601 111.208C36.5601 110.052 37.4971 109.115 38.6531 109.115ZM58.8847 111.208C58.8847 110.052 57.9477 109.115 56.7917 109.115C55.6358 109.115 54.6987 110.052 54.6987 111.208C54.6987 112.363 55.6358 113.301 56.7917 113.301C57.9477 113.301 58.8847 112.363 58.8847 111.208ZM74.9319 109.115C76.0878 109.115 77.0249 110.052 77.0249 111.208C77.0249 112.363 76.0878 113.301 74.9319 113.301C73.7759 113.301 72.8389 112.363 72.8389 111.208C72.8389 110.052 73.7759 109.115 74.9319 109.115ZM95.164 111.208C95.164 110.052 94.227 109.115 93.071 109.115C91.9151 109.115 90.978 110.052 90.978 111.208C90.978 112.363 91.9151 113.301 93.071 113.301C94.227 113.301 95.164 112.363 95.164 111.208ZM111.211 109.115C112.367 109.115 113.304 110.052 113.304 111.208C113.304 112.363 112.367 113.301 111.211 113.301C110.055 113.301 109.118 112.363 109.118 111.208C109.118 110.052 110.055 109.115 111.211 109.115ZM131.442 111.208C131.442 110.052 130.505 109.115 129.349 109.115C128.193 109.115 127.256 110.052 127.256 111.208C127.256 112.363 128.193 113.301 129.349 113.301C130.505 113.301 131.442 112.363 131.442 111.208ZM147.489 109.115C148.645 109.115 149.582 110.052 149.582 111.208C149.582 112.363 148.645 113.301 147.489 113.301C146.333 113.301 145.396 112.363 145.396 111.208C145.396 110.052 146.333 109.115 147.489 109.115ZM167.721 111.208C167.721 110.052 166.784 109.115 165.628 109.115C164.472 109.115 163.535 110.052 163.535 111.208C163.535 112.363 164.472 113.301 165.628 113.301C166.784 113.301 167.721 112.363 167.721 111.208ZM183.768 109.115C184.924 109.115 185.861 110.052 185.861 111.208C185.861 112.363 184.924 113.301 183.768 113.301C182.612 113.301 181.675 112.363 181.675 111.208C181.675 110.052 182.612 109.115 183.768 109.115ZM203.999 111.208C203.999 110.052 203.062 109.115 201.906 109.115C200.751 109.115 199.813 110.052 199.813 111.208C199.813 112.363 200.751 113.301 201.906 113.301C203.062 113.301 203.999 112.363 203.999 111.208ZM220.046 109.115C221.202 109.115 222.139 110.052 222.139 111.208C222.139 112.363 221.202 113.301 220.046 113.301C218.89 113.301 217.953 112.363 217.953 111.208C217.953 110.052 218.89 109.115 220.046 109.115ZM240.279 111.208C240.279 110.052 239.342 109.115 238.186 109.115C237.03 109.115 236.093 110.052 236.093 111.208C236.093 112.363 237.03 113.301 238.186 113.301C239.342 113.301 240.279 112.363 240.279 111.208ZM2.37425 90.9754C3.53018 90.9754 4.46725 91.9124 4.46725 93.0684C4.46725 94.2243 3.53018 95.1614 2.37425 95.1614C1.21832 95.1614 0.28125 94.2243 0.28125 93.0684C0.28125 91.9124 1.21832 90.9754 2.37425 90.9754ZM22.6064 93.0684C22.6064 91.9124 21.6693 90.9754 20.5134 90.9754C19.3575 90.9754 18.4204 91.9124 18.4204 93.0684C18.4204 94.2243 19.3575 95.1614 20.5134 95.1614C21.6693 95.1614 22.6064 94.2243 22.6064 93.0684ZM38.6531 90.9754C39.809 90.9754 40.7461 91.9124 40.7461 93.0684C40.7461 94.2243 39.809 95.1614 38.6531 95.1614C37.4971 95.1614 36.5601 94.2243 36.5601 93.0684C36.5601 91.9124 37.4971 90.9754 38.6531 90.9754ZM58.8847 93.0684C58.8847 91.9124 57.9477 90.9754 56.7917 90.9754C55.6358 90.9754 54.6987 91.9124 54.6987 93.0684C54.6987 94.2243 55.6358 95.1614 56.7917 95.1614C57.9477 95.1614 58.8847 94.2243 58.8847 93.0684ZM74.9319 90.9754C76.0878 90.9754 77.0249 91.9124 77.0249 93.0684C77.0249 94.2243 76.0878 95.1614 74.9319 95.1614C73.7759 95.1614 72.8389 94.2243 72.8389 93.0684C72.8389 91.9124 73.7759 90.9754 74.9319 90.9754ZM95.164 93.0684C95.164 91.9124 94.227 90.9754 93.071 90.9754C91.9151 90.9754 90.978 91.9124 90.978 93.0684C90.978 94.2243 91.9151 95.1614 93.071 95.1614C94.227 95.1614 95.164 94.2243 95.164 93.0684ZM111.211 90.9754C112.367 90.9754 113.304 91.9124 113.304 93.0684C113.304 94.2243 112.367 95.1614 111.211 95.1614C110.055 95.1614 109.118 94.2243 109.118 93.0684C109.118 91.9124 110.055 90.9754 111.211 90.9754ZM131.442 93.0684C131.442 91.9124 130.505 90.9754 129.349 90.9754C128.193 90.9754 127.256 91.9124 127.256 93.0684C127.256 94.2243 128.193 95.1614 129.349 95.1614C130.505 95.1614 131.442 94.2243 131.442 93.0684ZM147.489 90.9754C148.645 90.9754 149.582 91.9124 149.582 93.0684C149.582 94.2243 148.645 95.1614 147.489 95.1614C146.333 95.1614 145.396 94.2243 145.396 93.0684C145.396 91.9124 146.333 90.9754 147.489 90.9754ZM167.721 93.0684C167.721 91.9124 166.784 90.9754 165.628 90.9754C164.472 90.9754 163.535 91.9124 163.535 93.0684C163.535 94.2243 164.472 95.1614 165.628 95.1614C166.784 95.1614 167.721 94.2243 167.721 93.0684ZM183.768 90.9754C184.924 90.9754 185.861 91.9124 185.861 93.0684C185.861 94.2243 184.924 95.1614 183.768 95.1614C182.612 95.1614 181.675 94.2243 181.675 93.0684C181.675 91.9124 182.612 90.9754 183.768 90.9754ZM203.999 93.0684C203.999 91.9124 203.062 90.9754 201.906 90.9754C200.751 90.9754 199.813 91.9124 199.813 93.0684C199.813 94.2243 200.751 95.1614 201.906 95.1614C203.062 95.1614 203.999 94.2243 203.999 93.0684ZM220.046 90.9754C221.202 90.9754 222.139 91.9124 222.139 93.0684C222.139 94.2243 221.202 95.1614 220.046 95.1614C218.89 95.1614 217.953 94.2243 217.953 93.0684C217.953 91.9124 218.89 90.9754 220.046 90.9754ZM240.279 93.0684C240.279 91.9124 239.342 90.9754 238.186 90.9754C237.03 90.9754 236.093 91.9124 236.093 93.0684C236.093 94.2243 237.03 95.1614 238.186 95.1614C239.342 95.1614 240.279 94.2243 240.279 93.0684ZM2.37425 72.8362C3.53018 72.8362 4.46725 73.7733 4.46725 74.9292C4.46725 76.0852 3.53018 77.0222 2.37425 77.0222C1.21832 77.0222 0.28125 76.0852 0.28125 74.9292C0.28125 73.7733 1.21832 72.8362 2.37425 72.8362ZM22.6064 74.9292C22.6064 73.7733 21.6693 72.8362 20.5134 72.8362C19.3575 72.8362 18.4204 73.7733 18.4204 74.9292C18.4204 76.0852 19.3575 77.0222 20.5134 77.0222C21.6693 77.0222 22.6064 76.0852 22.6064 74.9292ZM38.6531 72.8362C39.809 72.8362 40.7461 73.7733 40.7461 74.9292C40.7461 76.0852 39.809 77.0222 38.6531 77.0222C37.4971 77.0222 36.5601 76.0852 36.5601 74.9292C36.5601 73.7733 37.4971 72.8362 38.6531 72.8362ZM58.8847 74.9292C58.8847 73.7733 57.9477 72.8362 56.7917 72.8362C55.6358 72.8362 54.6987 73.7733 54.6987 74.9292C54.6987 76.0852 55.6358 77.0222 56.7917 77.0222C57.9477 77.0222 58.8847 76.0852 58.8847 74.9292ZM74.9319 72.8362C76.0878 72.8362 77.0249 73.7733 77.0249 74.9292C77.0249 76.0852 76.0878 77.0222 74.9319 77.0222C73.7759 77.0222 72.8389 76.0852 72.8389 74.9292C72.8389 73.7733 73.7759 72.8362 74.9319 72.8362ZM95.164 74.9292C95.164 73.7733 94.227 72.8362 93.071 72.8362C91.9151 72.8362 90.978 73.7733 90.978 74.9292C90.978 76.0852 91.9151 77.0222 93.071 77.0222C94.227 77.0222 95.164 76.0852 95.164 74.9292ZM111.211 72.8362C112.367 72.8362 113.304 73.7733 113.304 74.9292C113.304 76.0852 112.367 77.0222 111.211 77.0222C110.055 77.0222 109.118 76.0852 109.118 74.9292C109.118 73.7733 110.055 72.8362 111.211 72.8362ZM131.442 74.9292C131.442 73.7733 130.505 72.8362 129.349 72.8362C128.193 72.8362 127.256 73.7733 127.256 74.9292C127.256 76.0852 128.193 77.0222 129.349 77.0222C130.505 77.0222 131.442 76.0852 131.442 74.9292ZM147.489 72.8362C148.645 72.8362 149.582 73.7733 149.582 74.9292C149.582 76.0852 148.645 77.0222 147.489 77.0222C146.333 77.0222 145.396 76.0852 145.396 74.9292C145.396 73.7733 146.333 72.8362 147.489 72.8362ZM167.721 74.9292C167.721 73.7733 166.784 72.8362 165.628 72.8362C164.472 72.8362 163.535 73.7733 163.535 74.9292C163.535 76.0852 164.472 77.0222 165.628 77.0222C166.784 77.0222 167.721 76.0852 167.721 74.9292ZM183.768 72.8362C184.924 72.8362 185.861 73.7733 185.861 74.9292C185.861 76.0852 184.924 77.0222 183.768 77.0222C182.612 77.0222 181.675 76.0852 181.675 74.9292C181.675 73.7733 182.612 72.8362 183.768 72.8362ZM203.999 74.9292C203.999 73.7733 203.062 72.8362 201.906 72.8362C200.751 72.8362 199.813 73.7733 199.813 74.9292C199.813 76.0852 200.751 77.0222 201.906 77.0222C203.062 77.0222 203.999 76.0852 203.999 74.9292ZM220.046 72.8362C221.202 72.8362 222.139 73.7733 222.139 74.9292C222.139 76.0852 221.202 77.0222 220.046 77.0222C218.89 77.0222 217.953 76.0852 217.953 74.9292C217.953 73.7733 218.89 72.8362 220.046 72.8362ZM240.279 74.9292C240.279 73.7733 239.342 72.8362 238.186 72.8362C237.03 72.8362 236.093 73.7733 236.093 74.9292C236.093 76.0852 237.03 77.0222 238.186 77.0222C239.342 77.0222 240.279 76.0852 240.279 74.9292ZM2.37425 54.6968C3.53018 54.6968 4.46725 55.6339 4.46725 56.7898C4.46725 57.9457 3.53018 58.8828 2.37425 58.8828C1.21832 58.8828 0.28125 57.9457 0.28125 56.7898C0.28125 55.6339 1.21832 54.6968 2.37425 54.6968ZM22.6064 56.7898C22.6064 55.6339 21.6693 54.6968 20.5134 54.6968C19.3575 54.6968 18.4204 55.6339 18.4204 56.7898C18.4204 57.9457 19.3575 58.8828 20.5134 58.8828C21.6693 58.8828 22.6064 57.9457 22.6064 56.7898ZM38.6531 54.6968C39.809 54.6968 40.7461 55.6339 40.7461 56.7898C40.7461 57.9457 39.809 58.8828 38.6531 58.8828C37.4971 58.8828 36.5601 57.9457 36.5601 56.7898C36.5601 55.6339 37.4971 54.6968 38.6531 54.6968ZM58.8847 56.7898C58.8847 55.6339 57.9477 54.6968 56.7917 54.6968C55.6358 54.6968 54.6987 55.6339 54.6987 56.7898C54.6987 57.9457 55.6358 58.8828 56.7917 58.8828C57.9477 58.8828 58.8847 57.9457 58.8847 56.7898ZM74.9319 54.6968C76.0878 54.6968 77.0249 55.6339 77.0249 56.7898C77.0249 57.9457 76.0878 58.8828 74.9319 58.8828C73.7759 58.8828 72.8389 57.9457 72.8389 56.7898C72.8389 55.6339 73.7759 54.6968 74.9319 54.6968ZM95.164 56.7898C95.164 55.6339 94.227 54.6968 93.071 54.6968C91.9151 54.6968 90.978 55.6339 90.978 56.7898C90.978 57.9457 91.9151 58.8828 93.071 58.8828C94.227 58.8828 95.164 57.9457 95.164 56.7898ZM111.211 54.6968C112.367 54.6968 113.304 55.6339 113.304 56.7898C113.304 57.9457 112.367 58.8828 111.211 58.8828C110.055 58.8828 109.118 57.9457 109.118 56.7898C109.118 55.6339 110.055 54.6968 111.211 54.6968ZM131.442 56.7898C131.442 55.6339 130.505 54.6968 129.349 54.6968C128.193 54.6968 127.256 55.6339 127.256 56.7898C127.256 57.9457 128.193 58.8828 129.349 58.8828C130.505 58.8828 131.442 57.9457 131.442 56.7898ZM147.489 54.6968C148.645 54.6968 149.582 55.6339 149.582 56.7898C149.582 57.9457 148.645 58.8828 147.489 58.8828C146.333 58.8828 145.396 57.9457 145.396 56.7898C145.396 55.6339 146.333 54.6968 147.489 54.6968ZM167.721 56.7898C167.721 55.6339 166.784 54.6968 165.628 54.6968C164.472 54.6968 163.535 55.6339 163.535 56.7898C163.535 57.9457 164.472 58.8828 165.628 58.8828C166.784 58.8828 167.721 57.9457 167.721 56.7898ZM183.768 54.6968C184.924 54.6968 185.861 55.6339 185.861 56.7898C185.861 57.9457 184.924 58.8828 183.768 58.8828C182.612 58.8828 181.675 57.9457 181.675 56.7898C181.675 55.6339 182.612 54.6968 183.768 54.6968ZM203.999 56.7898C203.999 55.6339 203.062 54.6968 201.906 54.6968C200.751 54.6968 199.813 55.6339 199.813 56.7898C199.813 57.9457 200.751 58.8828 201.906 58.8828C203.062 58.8828 203.999 57.9457 203.999 56.7898ZM220.046 54.6968C221.202 54.6968 222.139 55.6339 222.139 56.7898C222.139 57.9457 221.202 58.8828 220.046 58.8828C218.89 58.8828 217.953 57.9457 217.953 56.7898C217.953 55.6339 218.89 54.6968 220.046 54.6968ZM240.279 56.7898C240.279 55.6339 239.342 54.6968 238.186 54.6968C237.03 54.6968 236.093 55.6339 236.093 56.7898C236.093 57.9457 237.03 58.8828 238.186 58.8828C239.342 58.8828 240.279 57.9457 240.279 56.7898ZM2.37425 36.5576C3.53018 36.5576 4.46725 37.4947 4.46725 38.6507C4.46725 39.8066 3.53018 40.7437 2.37425 40.7437C1.21832 40.7437 0.28125 39.8066 0.28125 38.6507C0.28125 37.4947 1.21832 36.5576 2.37425 36.5576ZM22.6064 38.6507C22.6064 37.4947 21.6693 36.5576 20.5134 36.5576C19.3575 36.5576 18.4204 37.4947 18.4204 38.6507C18.4204 39.8066 19.3575 40.7437 20.5134 40.7437C21.6693 40.7437 22.6064 39.8066 22.6064 38.6507ZM38.6531 36.5576C39.809 36.5576 40.7461 37.4947 40.7461 38.6507C40.7461 39.8066 39.809 40.7437 38.6531 40.7437C37.4971 40.7437 36.5601 39.8066 36.5601 38.6507C36.5601 37.4947 37.4971 36.5576 38.6531 36.5576ZM58.8847 38.6507C58.8847 37.4947 57.9477 36.5576 56.7917 36.5576C55.6358 36.5576 54.6987 37.4947 54.6987 38.6507C54.6987 39.8066 55.6358 40.7437 56.7917 40.7437C57.9477 40.7437 58.8847 39.8066 58.8847 38.6507ZM74.9319 36.5576C76.0878 36.5576 77.0249 37.4947 77.0249 38.6507C77.0249 39.8066 76.0878 40.7437 74.9319 40.7437C73.7759 40.7437 72.8389 39.8066 72.8389 38.6507C72.8389 37.4947 73.7759 36.5576 74.9319 36.5576ZM95.164 38.6507C95.164 37.4947 94.227 36.5576 93.071 36.5576C91.9151 36.5576 90.978 37.4947 90.978 38.6507C90.978 39.8066 91.9151 40.7437 93.071 40.7437C94.227 40.7437 95.164 39.8066 95.164 38.6507ZM111.211 36.5576C112.367 36.5576 113.304 37.4947 113.304 38.6507C113.304 39.8066 112.367 40.7437 111.211 40.7437C110.055 40.7437 109.118 39.8066 109.118 38.6507C109.118 37.4947 110.055 36.5576 111.211 36.5576ZM131.442 38.6507C131.442 37.4947 130.505 36.5576 129.349 36.5576C128.193 36.5576 127.256 37.4947 127.256 38.6507C127.256 39.8066 128.193 40.7437 129.349 40.7437C130.505 40.7437 131.442 39.8066 131.442 38.6507ZM147.489 36.5576C148.645 36.5576 149.582 37.4947 149.582 38.6507C149.582 39.8066 148.645 40.7437 147.489 40.7437C146.333 40.7437 145.396 39.8066 145.396 38.6507C145.396 37.4947 146.333 36.5576 147.489 36.5576ZM167.721 38.6507C167.721 37.4947 166.784 36.5576 165.628 36.5576C164.472 36.5576 163.535 37.4947 163.535 38.6507C163.535 39.8066 164.472 40.7437 165.628 40.7437C166.784 40.7437 167.721 39.8066 167.721 38.6507ZM183.768 36.5576C184.924 36.5576 185.861 37.4947 185.861 38.6507C185.861 39.8066 184.924 40.7437 183.768 40.7437C182.612 40.7437 181.675 39.8066 181.675 38.6507C181.675 37.4947 182.612 36.5576 183.768 36.5576ZM203.999 38.6507C203.999 37.4947 203.062 36.5576 201.906 36.5576C200.751 36.5576 199.813 37.4947 199.813 38.6507C199.813 39.8066 200.751 40.7437 201.906 40.7437C203.062 40.7437 203.999 39.8066 203.999 38.6507ZM220.046 36.5576C221.202 36.5576 222.139 37.4947 222.139 38.6507C222.139 39.8066 221.202 40.7437 220.046 40.7437C218.89 40.7437 217.953 39.8066 217.953 38.6507C217.953 37.4947 218.89 36.5576 220.046 36.5576ZM240.279 38.6507C240.279 37.4947 239.342 36.5576 238.186 36.5576C237.03 36.5576 236.093 37.4947 236.093 38.6507C236.093 39.8066 237.03 40.7437 238.186 40.7437C239.342 40.7437 240.279 39.8066 240.279 38.6507ZM2.37425 18.418C3.53018 18.418 4.46725 19.3551 4.46725 20.511C4.46725 21.6669 3.53018 22.604 2.37425 22.604C1.21832 22.604 0.28125 21.6669 0.28125 20.511C0.28125 19.3551 1.21832 18.418 2.37425 18.418ZM22.6064 20.511C22.6064 19.3551 21.6693 18.418 20.5134 18.418C19.3575 18.418 18.4204 19.3551 18.4204 20.511C18.4204 21.6669 19.3575 22.604 20.5134 22.604C21.6693 22.604 22.6064 21.6669 22.6064 20.511ZM38.6531 18.418C39.809 18.418 40.7461 19.3551 40.7461 20.511C40.7461 21.6669 39.809 22.604 38.6531 22.604C37.4971 22.604 36.5601 21.6669 36.5601 20.511C36.5601 19.3551 37.4971 18.418 38.6531 18.418ZM58.8847 20.511C58.8847 19.3551 57.9477 18.418 56.7917 18.418C55.6358 18.418 54.6987 19.3551 54.6987 20.511C54.6987 21.6669 55.6358 22.604 56.7917 22.604C57.9477 22.604 58.8847 21.6669 58.8847 20.511ZM74.9319 18.418C76.0878 18.418 77.0249 19.3551 77.0249 20.511C77.0249 21.6669 76.0878 22.604 74.9319 22.604C73.7759 22.604 72.8389 21.6669 72.8389 20.511C72.8389 19.3551 73.7759 18.418 74.9319 18.418ZM95.164 20.511C95.164 19.3551 94.227 18.418 93.071 18.418C91.9151 18.418 90.978 19.3551 90.978 20.511C90.978 21.6669 91.9151 22.604 93.071 22.604C94.227 22.604 95.164 21.6669 95.164 20.511ZM111.211 18.418C112.367 18.418 113.304 19.3551 113.304 20.511C113.304 21.6669 112.367 22.604 111.211 22.604C110.055 22.604 109.118 21.6669 109.118 20.511C109.118 19.3551 110.055 18.418 111.211 18.418ZM131.442 20.511C131.442 19.3551 130.505 18.418 129.349 18.418C128.193 18.418 127.256 19.3551 127.256 20.511C127.256 21.6669 128.193 22.604 129.349 22.604C130.505 22.604 131.442 21.6669 131.442 20.511ZM147.489 18.418C148.645 18.418 149.582 19.3551 149.582 20.511C149.582 21.6669 148.645 22.604 147.489 22.604C146.333 22.604 145.396 21.6669 145.396 20.511C145.396 19.3551 146.333 18.418 147.489 18.418ZM167.721 20.511C167.721 19.3551 166.784 18.418 165.628 18.418C164.472 18.418 163.535 19.3551 163.535 20.511C163.535 21.6669 164.472 22.604 165.628 22.604C166.784 22.604 167.721 21.6669 167.721 20.511ZM183.768 18.418C184.924 18.418 185.861 19.3551 185.861 20.511C185.861 21.6669 184.924 22.604 183.768 22.604C182.612 22.604 181.675 21.6669 181.675 20.511C181.675 19.3551 182.612 18.418 183.768 18.418ZM203.999 20.511C203.999 19.3551 203.062 18.418 201.906 18.418C200.751 18.418 199.813 19.3551 199.813 20.511C199.813 21.6669 200.751 22.604 201.906 22.604C203.062 22.604 203.999 21.6669 203.999 20.511ZM220.046 18.418C221.202 18.418 222.139 19.3551 222.139 20.511C222.139 21.6669 221.202 22.604 220.046 22.604C218.89 22.604 217.953 21.6669 217.953 20.511C217.953 19.3551 218.89 18.418 220.046 18.418ZM240.279 20.511C240.279 19.3551 239.342 18.418 238.186 18.418C237.03 18.418 236.093 19.3551 236.093 20.511C236.093 21.6669 237.03 22.604 238.186 22.604C239.342 22.604 240.279 21.6669 240.279 20.511ZM2.37425 0.278839C3.53018 0.278839 4.46725 1.21591 4.46725 2.37184C4.46725 3.52777 3.53018 4.46484 2.37425 4.46484C1.21832 4.46484 0.28125 3.52777 0.28125 2.37184C0.28125 1.21591 1.21832 0.278839 2.37425 0.278839ZM22.6064 2.37184C22.6064 1.21591 21.6693 0.278839 20.5134 0.278839C19.3575 0.278839 18.4204 1.21591 18.4204 2.37184C18.4204 3.52777 19.3575 4.46484 20.5134 4.46484C21.6693 4.46484 22.6064 3.52777 22.6064 2.37184ZM38.6531 0.278839C39.809 0.278839 40.7461 1.21591 40.7461 2.37184C40.7461 3.52777 39.809 4.46484 38.6531 4.46484C37.4971 4.46484 36.5601 3.52777 36.5601 2.37184C36.5601 1.21591 37.4971 0.278839 38.6531 0.278839ZM58.8847 2.37184C58.8847 1.21591 57.9477 0.278839 56.7917 0.278839C55.6358 0.278839 54.6987 1.21591 54.6987 2.37184C54.6987 3.52777 55.6358 4.46484 56.7917 4.46484C57.9477 4.46484 58.8847 3.52777 58.8847 2.37184ZM74.9319 0.278839C76.0878 0.278839 77.0249 1.21591 77.0249 2.37184C77.0249 3.52777 76.0878 4.46484 74.9319 4.46484C73.7759 4.46484 72.8389 3.52777 72.8389 2.37184C72.8389 1.21591 73.7759 0.278839 74.9319 0.278839ZM95.164 2.37184C95.164 1.21591 94.227 0.278839 93.071 0.278839C91.9151 0.278839 90.978 1.21591 90.978 2.37184C90.978 3.52777 91.9151 4.46484 93.071 4.46484C94.227 4.46484 95.164 3.52777 95.164 2.37184ZM111.211 0.278839C112.367 0.278839 113.304 1.21591 113.304 2.37184C113.304 3.52777 112.367 4.46484 111.211 4.46484C110.055 4.46484 109.118 3.52777 109.118 2.37184C109.118 1.21591 110.055 0.278839 111.211 0.278839ZM131.442 2.37184C131.442 1.21591 130.505 0.278839 129.349 0.278839C128.193 0.278839 127.256 1.21591 127.256 2.37184C127.256 3.52777 128.193 4.46484 129.349 4.46484C130.505 4.46484 131.442 3.52777 131.442 2.37184ZM147.489 0.278839C148.645 0.278839 149.582 1.21591 149.582 2.37184C149.582 3.52777 148.645 4.46484 147.489 4.46484C146.333 4.46484 145.396 3.52777 145.396 2.37184C145.396 1.21591 146.333 0.278839 147.489 0.278839ZM167.721 2.37184C167.721 1.21591 166.784 0.278839 165.628 0.278839C164.472 0.278839 163.535 1.21591 163.535 2.37184C163.535 3.52777 164.472 4.46484 165.628 4.46484C166.784 4.46484 167.721 3.52777 167.721 2.37184ZM183.768 0.278839C184.924 0.278839 185.861 1.21591 185.861 2.37184C185.861 3.52777 184.924 4.46484 183.768 4.46484C182.612 4.46484 181.675 3.52777 181.675 2.37184C181.675 1.21591 182.612 0.278839 183.768 0.278839ZM203.999 2.37184C203.999 1.21591 203.062 0.278839 201.906 0.278839C200.751 0.278839 199.813 1.21591 199.813 2.37184C199.813 3.52777 200.751 4.46484 201.906 4.46484C203.062 4.46484 203.999 3.52777 203.999 2.37184ZM220.046 0.278839C221.202 0.278839 222.139 1.21591 222.139 2.37184C222.139 3.52777 221.202 4.46484 220.046 4.46484C218.89 4.46484 217.953 3.52777 217.953 2.37184C217.953 1.21591 218.89 0.278839 220.046 0.278839ZM240.279 2.37184C240.279 1.21591 239.342 0.278839 238.186 0.278839C237.03 0.278839 236.093 1.21591 236.093 2.37184C236.093 3.52777 237.03 4.46484 238.186 4.46484C239.342 4.46484 240.279 3.52777 240.279 2.37184Z" fill="white"/>
</g>
</svg>
